<?xml version="1.0" standalone="no"?>
<!DOCTYPE svg PUBLIC "-//W3C//DTD SVG 20010904//EN"
 "http://www.w3.org/TR/2001/REC-SVG-20010904/DTD/svg10.dtd">
<svg version="1.0" xmlns="http://www.w3.org/2000/svg"
 width="500.000000pt" height="500.000000pt" viewBox="0 0 500.000000 500.000000"
 preserveAspectRatio="xMidYMid meet">
<metadata>
Created by potrace 1.14, written by Peter Selinger 2001-2017
</metadata>
<g transform="translate(0.000000,500.000000) scale(0.100000,-0.100000)"
fill="#000000" stroke="none">
<path d="M1149 4708 c0 -22 -1 -22 -9 -3 l-9 20 -1 -20 -1 -20 -9 20 c-7 16
-9 12 -9 -18 -1 -23 11 -62 29 -100 30 -61 30 -61 5 -32 -14 17 -31 49 -37 72
-13 46 -28 48 -28 3 0 -24 15 -44 76 -102 63 -61 73 -74 60 -84 -12 -8 -13
-13 -3 -23 9 -10 8 -11 -8 -6 -19 6 -19 6 -2 -8 14 -11 15 -16 5 -20 -10 -4
-8 -10 7 -22 20 -17 19 -17 -5 -10 l-25 7 23 -24 c12 -13 19 -28 15 -31 -3 -4
0 -7 8 -7 11 0 11 -2 -1 -10 -13 -9 -13 -10 0 -10 13 0 13 -1 0 -10 -11 -7
-11 -10 -2 -10 7 0 11 -4 8 -9 -3 -5 1 -14 9 -21 11 -9 12 -16 5 -25 -8 -9 -6
-15 7 -19 14 -6 15 -9 4 -15 -11 -7 -9 -11 8 -20 25 -14 28 -31 5 -31 -8 0
-12 -5 -9 -10 4 -6 12 -7 18 -4 9 5 9 3 0 -6 -10 -11 -8 -17 9 -32 21 -18 21
-19 2 -32 -18 -14 -18 -15 9 -27 20 -9 24 -15 17 -25 -8 -8 -7 -14 2 -17 10
-4 10 -7 -1 -15 -11 -8 -10 -11 6 -16 16 -5 20 -14 18 -37 -2 -21 4 -34 18
-44 21 -15 21 -15 -3 -15 -22 -1 -23 -2 -7 -11 9 -6 15 -14 12 -18 -2 -5 5
-11 18 -15 18 -5 19 -8 8 -15 -12 -8 -10 -12 12 -22 14 -6 24 -16 21 -20 -3
-5 1 -9 8 -9 9 0 9 -3 -2 -10 -12 -8 -10 -10 10 -11 19 -1 21 -2 6 -6 -16 -4
-15 -7 10 -25 26 -17 27 -19 5 -13 -15 5 -21 3 -17 -3 3 -6 20 -14 37 -17 21
-5 27 -10 19 -15 -8 -5 -3 -13 19 -26 21 -12 27 -20 18 -26 -8 -5 -7 -8 5 -8
9 0 19 -8 23 -19 3 -10 24 -26 46 -36 22 -10 43 -23 46 -28 10 -16 -130 4
-170 25 -31 15 -46 17 -80 10 -28 -7 -34 -10 -17 -11 38 -2 130 -25 130 -33 0
-4 -24 -9 -52 -11 l-53 -3 63 -2 c40 -1 61 2 57 8 -3 6 -1 10 4 10 6 0 11 -6
11 -14 0 -8 12 -17 28 -20 15 -2 -18 -3 -73 -1 -74 3 -88 1 -54 -5 25 -4 60
-15 77 -24 17 -9 41 -16 54 -17 18 -1 15 -3 -12 -12 l-35 -11 50 -6 c35 -3 45
-7 32 -13 -11 -4 -23 -5 -27 -2 -5 3 -8 -4 -7 -15 1 -21 31 -28 42 -10 3 6 16
10 28 10 15 0 18 3 9 8 -14 9 -6 42 12 54 7 5 6 8 -4 8 -9 1 -5 6 10 15 l25
14 -35 1 c-41 2 -35 5 45 21 57 11 59 12 32 22 l-29 9 27 18 27 17 -38 8 c-45
8 -29 24 26 26 32 1 33 2 10 9 -23 7 -23 8 10 10 l35 2 -30 8 -30 8 35 2 c32
2 33 3 10 10 l-25 7 30 8 30 8 -30 13 -30 13 42 1 c31 0 41 4 37 14 -6 15 -86
53 -124 59 -19 3 -16 5 10 6 l35 2 -25 14 c-14 8 -35 14 -47 15 -13 0 -23 5
-23 10 0 6 10 10 23 10 17 0 12 5 -21 22 -41 21 -42 23 -21 34 20 10 17 12
-27 18 -58 8 -97 28 -49 25 64 -3 80 0 67 13 -7 7 -30 18 -50 24 -37 12 -37
12 -7 13 l30 2 -24 13 c-28 16 -13 31 22 21 21 -6 21 -6 -3 15 -21 17 -22 19
-5 14 19 -5 19 -5 -1 13 -12 10 -30 23 -40 30 -15 10 -15 11 -2 7 9 -3 25 -1
35 6 16 9 15 10 -6 4 -16 -4 -21 -3 -17 5 5 7 1 8 -10 4 -11 -4 -15 -3 -11 4
5 7 -6 14 -25 19 -32 7 -32 8 -8 14 14 4 40 1 59 -7 54 -21 50 -15 -14 22 -33
19 -53 35 -45 35 8 1 -1 8 -20 17 -19 8 -30 17 -23 20 7 2 21 0 32 -6 38 -21
33 -11 -19 37 -29 26 -69 55 -89 64 -31 15 -33 18 -12 18 23 0 24 1 6 20 -10
11 -22 17 -28 13 -5 -3 -7 -1 -4 4 9 14 -29 46 -45 38 -7 -3 -5 0 4 8 16 13
14 18 -37 63 -30 27 -60 49 -67 49 -18 0 -89 111 -95 149 -4 30 -4 30 11 11
15 -19 15 -19 16 15 l1 35 24 -30 c14 -16 28 -30 32 -30 5 0 27 -20 50 -45 30
-31 45 -41 51 -33 5 8 16 -3 31 -32 13 -25 29 -45 35 -45 6 0 17 -9 24 -21 8
-12 19 -18 28 -15 8 3 14 0 14 -8 0 -7 11 -25 25 -40 14 -15 25 -29 25 -32 0
-13 53 -83 60 -79 4 3 13 -9 20 -26 7 -17 24 -35 37 -40 13 -5 30 -24 38 -41
11 -25 14 -28 15 -13 1 12 8 3 20 -25 11 -27 19 -37 20 -25 0 15 6 10 23 -19
12 -21 25 -37 29 -35 10 5 128 -182 128 -203 0 -12 -6 -16 -20 -13 -17 3 -19
1 -10 -15 5 -10 10 -30 10 -44 l0 -25 -24 24 c-16 16 -32 53 -45 102 -16 62
-20 71 -21 43 l-1 -35 -14 30 c-8 17 -24 53 -36 80 -12 28 -23 44 -26 38 -2
-7 16 -62 40 -123 33 -79 41 -110 31 -110 -17 0 -18 -12 -2 -28 9 -9 15 -7 25
6 13 15 14 14 8 -11 -3 -15 0 -37 6 -50 10 -19 8 -19 -18 6 -16 15 -36 27 -44
27 -7 -1 -1 -8 14 -16 15 -8 25 -19 22 -24 -7 -11 49 -30 88 -30 29 0 30 1 11
15 -15 11 -16 15 -4 15 35 3 73 9 77 14 3 2 -15 13 -39 24 -37 17 -39 20 -18
22 14 0 47 7 74 14 l49 13 -34 7 c-19 4 -28 10 -21 13 18 7 15 23 -5 23 -16 0
-73 59 -73 75 0 10 43 -5 71 -25 14 -10 46 -24 70 -30 24 -6 53 -14 64 -17 17
-5 17 -4 4 9 -20 21 -134 74 -184 87 -30 8 -52 24 -88 67 -26 31 -47 61 -47
68 0 6 -4 4 -10 -4 -7 -11 -12 -3 -22 33 -7 29 -19 49 -30 53 -10 3 -28 23
-42 45 -13 22 -27 40 -32 39 -5 -1 -14 12 -20 29 -7 23 -13 28 -21 20 -8 -8
-15 -4 -26 18 -19 37 -77 94 -88 87 -5 -3 -6 3 -2 12 4 12 3 15 -5 10 -7 -4
-12 -2 -12 4 0 20 -48 71 -53 57 -3 -7 -6 -5 -6 5 -1 27 -33 60 -43 45 -6 -9
-8 -8 -8 3 0 8 -13 31 -29 50 l-29 34 5 -29 c3 -23 2 -27 -6 -15 -6 8 -11 26
-12 40 0 14 -3 19 -6 12 -3 -9 -12 -2 -26 20 -11 18 -22 28 -24 21 -4 -10 -7
-10 -18 0 -7 7 -10 16 -7 21 3 5 0 6 -6 2 -6 -4 -21 -2 -32 4 -17 9 -20 8 -21
-12z m62 -215 c13 -16 12 -17 -3 -4 -10 7 -18 15 -18 17 0 8 8 3 21 -13z m349
-159 c0 -4 -9 3 -20 16 -11 13 -20 27 -20 33 0 5 9 -2 20 -16 11 -14 20 -29
20 -33z m340 -505 c0 -11 -4 -18 -10 -14 -5 3 -7 12 -3 20 7 21 13 19 13 -6z
m-100 -135 l25 -15 -25 7 c-14 4 -43 11 -65 15 l-40 6 40 1 c22 1 51 -5 65
-14z"/>
<path d="M4090 4700 c-17 -21 -27 -26 -32 -17 -5 7 -8 0 -9 -18 -1 -29 -1 -30
-9 -5 -6 18 -8 20 -9 7 -1 -10 -5 -16 -10 -12 -6 3 -15 -3 -20 -14 -13 -24
-14 -71 -2 -71 13 0 113 114 123 139 11 30 -3 26 -32 -9z"/>
<path d="M4130 4704 c-15 -39 -12 -46 10 -24 21 21 27 50 10 50 -6 0 -15 -12
-20 -26z"/>
<path d="M4184 4683 c-8 -34 -49 -104 -87 -146 -20 -24 -26 -27 -21 -12 4 15
1 13 -10 -5 -29 -47 -17 -52 38 -15 33 22 40 23 37 3 -2 -13 6 -9 20 9 12 14
12 16 0 8 -20 -12 -6 72 18 105 24 34 34 67 22 75 -6 3 -13 -7 -17 -22z"/>
<path d="M4204 4633 c-4 -27 -11 -58 -15 -70 -7 -19 -5 -23 10 -23 19 0 55 33
46 42 -3 3 -1 18 5 34 11 27 10 27 -7 11 -18 -16 -19 -15 -15 18 6 54 -16 42
-24 -12z"/>
<path d="M3938 4578 c-21 -20 -38 -32 -38 -25 -1 7 -9 -4 -19 -23 -11 -19 -22
-33 -25 -30 -3 3 -13 -5 -21 -17 -9 -12 -22 -20 -29 -17 -8 3 -22 -9 -34 -30
-12 -20 -25 -36 -30 -36 -5 0 -22 -19 -37 -42 -16 -24 -39 -54 -51 -68 -13
-14 -32 -36 -44 -50 -17 -21 -19 -21 -11 -4 10 21 6 34 -10 34 -5 0 -6 -6 -3
-14 8 -21 -7 -45 -86 -136 -39 -45 -70 -88 -70 -96 0 -8 -4 -13 -8 -10 -4 3
-16 -11 -27 -30 -10 -19 -38 -50 -62 -70 -24 -20 -41 -39 -38 -43 2 -5 -15
-15 -38 -24 l-42 -17 28 25 c15 14 25 25 22 25 -4 0 16 19 43 42 35 29 47 45
39 51 -7 5 -2 6 11 2 12 -3 22 -2 22 3 0 17 -12 20 -38 12 -15 -5 -40 -11 -56
-15 -15 -3 -26 -9 -22 -12 3 -4 -10 -16 -30 -28 -38 -23 -32 -45 7 -25 31 17
35 5 7 -23 -17 -17 -44 -27 -98 -36 -64 -10 -149 -46 -137 -57 2 -2 43 10 93
26 98 33 108 35 99 20 -13 -20 6 -30 28 -15 12 8 28 15 37 15 40 1 140 89 176
156 31 59 59 95 67 87 4 -3 11 5 16 19 10 28 36 52 48 45 4 -3 24 18 43 46 75
114 313 357 340 350 11 -3 24 38 18 59 -2 8 -16 0 -40 -24z"/>
<path d="M1059 4571 c7 -5 11 -15 9 -22 -3 -8 4 -26 14 -41 l19 -28 -23 0
c-22 -1 -22 -1 -4 -15 33 -25 42 -18 43 33 0 52 -18 82 -51 82 -16 0 -18 -2
-7 -9z"/>
<path d="M4220 4524 c-26 -30 -31 -43 -26 -67 3 -16 1 -36 -5 -43 -6 -7 -13
-28 -15 -46 -6 -42 -12 -72 -20 -92 -5 -12 -2 -15 12 -10 18 5 18 5 2 -6 -19
-11 -25 -40 -9 -40 15 0 29 24 25 47 -2 12 1 25 6 28 5 3 7 12 4 19 -3 8 -1
17 5 21 15 8 14 45 0 45 -8 0 -8 4 0 14 16 19 32 76 21 76 -5 0 3 20 17 45 13
25 23 45 20 45 -3 0 -19 -16 -37 -36z"/>
<path d="M2493 4503 c20 -2 54 -2 75 0 20 2 3 4 -38 4 -41 0 -58 -2 -37 -4z"/>
<path d="M2338 4493 c12 -2 32 -2 45 0 12 2 2 4 -23 4 -25 0 -35 -2 -22 -4z"/>
<path d="M2683 4493 c26 -2 67 -2 90 0 23 2 2 3 -48 3 -49 0 -68 -1 -42 -3z"/>
<path d="M4063 4471 c-29 -16 -65 -40 -80 -55 -69 -65 -110 -101 -138 -118
-28 -18 -28 -19 -5 -14 14 3 6 -3 -17 -14 -24 -10 -43 -24 -43 -30 0 -7 6 -8
19 0 11 5 26 10 33 10 7 -1 -2 -7 -21 -15 -18 -8 -38 -12 -44 -8 -6 3 -7 1 -3
-6 5 -7 21 -9 44 -6 28 5 33 4 22 -4 -13 -10 -13 -11 0 -12 8 0 -14 -11 -50
-25 l-65 -24 48 4 c26 2 47 2 47 0 0 -2 -25 -16 -55 -30 -30 -15 -54 -29 -52
-30 1 -2 19 1 40 5 21 5 35 5 31 0 -3 -5 -12 -9 -20 -9 -8 0 -14 -4 -14 -8 0
-4 -15 -13 -32 -20 -32 -12 -32 -13 -14 -27 18 -14 18 -15 2 -15 -9 0 -15 -4
-12 -9 4 -5 0 -11 -6 -14 -7 -3 7 -3 32 -1 l45 4 -41 -13 c-23 -8 -47 -18 -54
-22 -18 -11 7 -24 50 -26 33 -1 32 -1 -15 -13 -27 -7 -59 -18 -70 -25 l-20
-12 20 5 c71 18 79 16 30 -9 -55 -27 -49 -34 9 -10 42 18 48 12 9 -9 l-28 -15
25 -1 c24 -1 24 -1 5 -12 -10 -6 -33 -15 -50 -20 -26 -7 -25 -7 10 -4 l40 4
-30 -13 c-85 -37 -83 -36 -47 -30 43 6 40 0 -10 -24 l-43 -20 43 3 c32 3 41 1
32 -8 -6 -6 -41 -11 -78 -11 -37 0 -85 -4 -107 -8 l-40 -7 30 14 c37 18 113
106 87 101 -9 -1 -16 -8 -14 -16 3 -10 0 -10 -12 0 -14 12 -13 17 7 45 20 28
42 90 51 141 1 11 11 35 20 53 10 19 15 36 12 39 -7 7 -88 -157 -91 -185 -1
-12 -9 -30 -18 -40 -8 -9 -17 -24 -19 -32 -4 -18 -28 -39 -47 -40 -9 0 -10 4
-3 13 5 6 13 22 16 35 6 17 3 22 -10 22 -14 0 -16 7 -12 38 5 35 5 35 -5 10
-6 -16 -20 -31 -31 -34 -46 -15 -41 -44 7 -44 29 -1 27 -3 -26 -26 -32 -13
-81 -29 -109 -34 -70 -14 -72 -20 -7 -20 32 1 62 7 73 15 11 8 34 15 50 16 27
0 28 2 11 9 -19 8 -19 9 3 9 12 1 22 -4 22 -9 0 -6 14 -17 32 -24 30 -13 30
-14 10 -25 -11 -6 -46 -11 -76 -11 -54 0 -70 -10 -43 -27 6 -4 37 -6 67 -4 55
3 63 -13 10 -21 -26 -5 -13 -8 87 -24 35 -5 36 -7 19 -19 -10 -8 -39 -17 -65
-22 -44 -7 -45 -7 -16 -14 17 -4 57 -8 90 -10 l60 -2 -65 -7 c-61 -6 -62 -7
-17 -8 27 -1 46 -6 42 -11 -3 -5 5 -12 17 -14 13 -2 3 -5 -21 -6 -24 0 -42 -4
-39 -7 3 -3 37 -16 74 -29 53 -19 62 -25 39 -25 -24 0 -27 -2 -15 -11 11 -7
-11 -8 -75 -5 l-90 5 55 -15 c90 -24 157 -21 219 10 41 21 51 30 40 37 -8 5
-23 6 -34 3 -18 -5 -19 -4 -3 8 10 7 35 24 57 37 22 14 38 28 35 33 -3 4 3 8
13 9 10 0 13 3 6 6 -7 2 -27 -3 -45 -12 -45 -23 -78 -35 -78 -30 0 3 30 21 68
40 37 20 57 33 45 30 -31 -8 -37 10 -8 23 14 7 25 16 25 21 0 5 16 18 36 30
35 21 39 45 6 35 -9 -3 6 15 33 41 39 36 45 46 27 42 -23 -5 -23 -5 3 20 18
18 22 30 15 37 -7 7 -2 17 16 31 15 12 28 33 29 50 2 16 14 37 27 48 13 10 16
16 8 12 -8 -4 -6 1 5 10 19 16 19 17 -15 10 -33 -7 -34 -6 -15 9 11 8 27 16
35 16 13 0 13 1 0 10 -13 9 -13 10 0 10 12 0 12 2 1 9 -9 6 -10 11 -3 15 6 4
9 13 6 20 -3 8 0 17 5 21 6 3 9 10 6 15 -3 5 4 15 16 23 13 10 17 17 9 22 -8
5 -8 10 0 20 8 9 8 15 1 20 -7 4 -1 16 14 33 15 17 21 29 14 33 -8 5 -8 9 0
13 6 4 9 18 7 32 -3 13 -1 24 4 24 4 0 10 7 13 14 4 11 1 13 -11 9 -15 -6 -14
-3 2 15 13 15 15 22 6 22 -10 0 -10 4 2 18 18 20 30 52 20 52 -4 -1 -31 -13
-59 -29z m-186 -267 c-3 -3 -12 -4 -19 -1 -8 3 -5 6 6 6 11 1 17 -2 13 -5z
m-137 -239 c-14 -8 -36 -14 -50 -14 -20 0 -16 3 15 14 53 17 65 17 35 0z
m-184 -284 c-8 -12 -46 -21 -46 -11 0 9 18 18 38 19 7 1 11 -3 8 -8z m-37 -75
c-2 -2 -22 -6 -44 -9 -28 -5 -34 -4 -20 3 19 8 73 14 64 6z"/>
<path d="M2258 4483 c6 -2 18 -2 25 0 6 3 1 5 -13 5 -14 0 -19 -2 -12 -5z"/>
<path d="M2858 4483 c6 -2 18 -2 25 0 6 3 1 5 -13 5 -14 0 -19 -2 -12 -5z"/>
<path d="M2085 4460 c-14 -7 -8 -8 20 -3 22 3 42 7 44 9 9 8 -45 2 -64 -6z"/>
<path d="M2018 4443 c6 -2 18 -2 25 0 6 3 1 5 -13 5 -14 0 -19 -2 -12 -5z"/>
<path d="M1078 4428 c7 -7 12 -20 12 -31 0 -12 6 -17 18 -15 32 7 9 57 -27 58
-12 0 -12 -3 -3 -12z"/>
<path d="M1955 4430 c-13 -5 -14 -9 -5 -9 8 0 24 4 35 9 13 5 14 9 5 9 -8 0
-24 -4 -35 -9z"/>
<path d="M3954 4419 c-19 -22 -19 -22 4 -8 12 8 22 17 22 21 0 12 -6 9 -26
-13z"/>
<path d="M1898 4413 c6 -2 18 -2 25 0 6 3 1 5 -13 5 -14 0 -19 -2 -12 -5z"/>
<path d="M1848 4403 c6 -2 18 -2 25 0 6 3 1 5 -13 5 -14 0 -19 -2 -12 -5z"/>
<path d="M2677 4369 c-9 -25 -17 -52 -17 -60 0 -16 -37 -66 -43 -58 -2 2 -9
15 -15 29 l-13 25 6 -25 c2 -14 6 -86 6 -160 2 -132 2 -133 9 -50 8 95 41 213
48 171 3 -19 6 -21 14 -10 6 9 8 -10 5 -61 -5 -101 6 -134 22 -62 13 63 14 89
3 94 -5 2 -12 37 -15 78 -3 44 -2 65 3 50 4 -14 9 -20 10 -15 2 6 5 -6 9 -25
3 -19 9 -30 12 -25 3 6 -1 41 -10 79 l-17 69 -17 -44z m10 -271 c-3 -8 -6 -5
-6 6 -1 11 2 17 5 13 3 -3 4 -12 1 -19z"/>
<path d="M3270 4392 c8 -5 26 -13 40 -16 17 -5 20 -4 10 2 -8 5 -26 13 -40 16
-17 5 -20 4 -10 -2z"/>
<path d="M1700 4360 c-18 -12 -2 -12 25 0 13 6 15 9 5 9 -8 0 -22 -4 -30 -9z"/>
<path d="M3360 4360 c8 -5 20 -10 25 -10 6 0 3 5 -5 10 -8 5 -19 10 -25 10 -5
0 -3 -5 5 -10z"/>
<path d="M1086 4352 l-28 -4 23 -24 c27 -29 33 -54 13 -54 -8 0 -14 -4 -14
-10 0 -5 7 -10 16 -10 11 0 15 -6 11 -19 -3 -13 1 -21 15 -24 17 -5 18 -2 12
39 -3 25 -7 58 -8 74 -2 35 -4 36 -40 32z"/>
<path d="M2550 4351 c0 -5 7 -12 16 -15 14 -5 15 -4 4 9 -14 17 -20 19 -20 6z"/>
<path d="M2752 4315 c-16 -59 -16 -188 0 -161 9 15 22 206 15 206 -2 0 -8 -20
-15 -45z"/>
<path d="M3846 4344 c-5 -14 -4 -15 9 -4 17 14 19 20 6 20 -5 0 -12 -7 -15
-16z"/>
<path d="M2530 4300 c0 -16 10 -60 23 -97 22 -67 22 -67 25 -31 3 32 -33 158
-44 158 -2 0 -4 -13 -4 -30z"/>
<path d="M3794 4298 l-19 -23 23 19 c12 11 22 21 22 23 0 8 -8 2 -26 -19z"/>
<path d="M2495 4290 c4 -14 12 -70 17 -125 7 -66 22 -134 44 -200 26 -77 35
-125 41 -210 4 -71 9 -101 14 -85 4 14 8 18 8 10 1 -8 9 1 19 20 l17 35 5 -27
c4 -21 9 -25 19 -19 29 18 41 -13 37 -90 -3 -45 -1 -67 5 -58 5 8 9 37 9 65 0
38 4 54 16 58 8 3 13 10 10 15 -7 11 16 31 43 36 27 5 41 14 41 26 0 6 -5 7
-12 3 -7 -4 -8 -3 -4 5 9 14 26 5 26 -14 0 -8 25 9 56 38 31 28 51 53 46 55
-15 5 -102 -37 -102 -48 0 -6 -5 -10 -11 -10 -5 0 -27 -11 -47 -25 -33 -23
-72 -33 -72 -19 0 3 5 14 10 25 8 13 7 19 0 19 -14 0 4 36 39 75 l26 30 -33
-30 c-41 -36 -62 -75 -62 -112 0 -35 -17 -20 -34 32 l-13 37 -11 -29 c-5 -15
-14 -37 -18 -48 -5 -13 -10 14 -15 77 -5 62 -15 114 -28 144 -12 26 -21 60
-21 76 0 16 -4 27 -9 23 -12 -7 -19 35 -24 141 -3 57 -9 89 -22 105 l-17 24 7
-25z"/>
<path d="M2880 4253 c-66 -80 -148 -218 -136 -230 3 -3 19 9 36 27 23 25 29
38 24 58 -4 18 -3 23 4 14 7 -10 12 -6 21 17 7 16 40 53 72 81 59 52 73 78 25
46 -36 -23 -43 -20 -16 9 13 14 22 27 19 29 -2 2 -24 -21 -49 -51z"/>
<path d="M2998 4294 c-3 -12 -34 -45 -69 -74 -60 -49 -87 -86 -89 -119 0 -8 9
-4 21 10 11 13 17 17 13 9 -4 -8 12 7 36 33 23 26 44 46 46 44 8 -8 -38 -122
-58 -144 -32 -35 -16 -37 19 -3 17 17 34 46 37 65 9 44 36 69 92 85 25 7 42
15 40 18 -3 2 -25 -3 -49 -11 -62 -21 -74 -10 -47 42 12 24 19 48 17 54 -2 6
-6 2 -9 -9z"/>
<path d="M3510 4295 c14 -8 30 -14 35 -14 6 0 -1 6 -15 14 -14 8 -29 14 -35
14 -5 0 1 -6 15 -14z"/>
<path d="M2366 4282 c12 -9 25 -28 29 -42 9 -31 25 -51 35 -45 4 3 13 -8 20
-24 6 -16 17 -32 24 -34 9 -4 9 10 1 57 -5 33 -11 54 -13 45 -2 -11 -13 -6
-44 23 -23 21 -48 38 -57 38 -13 0 -11 -4 5 -18z m63 -66 c-3 -3 -11 5 -18 17
-13 21 -12 21 5 5 10 -10 16 -20 13 -22z"/>
<path d="M2835 4260 c-8 -34 -8 -34 -12 -7 -5 33 -18 35 -34 5 -11 -21 -11
-22 4 -10 13 12 16 10 19 -15 l3 -28 18 27 c10 15 17 35 15 45 -3 12 -7 6 -13
-17z"/>
<path d="M2269 4262 c6 -12 16 -24 22 -28 8 -4 8 -1 0 14 -6 12 -16 24 -22 28
-8 4 -8 1 0 -14z"/>
<path d="M2328 4252 c-23 -4 -23 -18 -2 -26 9 -4 14 -9 11 -13 -4 -3 -2 -12 4
-20 16 -18 8 -17 -57 12 -52 23 -94 32 -94 20 0 -2 18 -22 40 -45 21 -22 34
-40 29 -40 -6 0 10 -20 37 -45 51 -48 72 -52 36 -7 -12 15 -35 46 -52 70 l-29
42 27 -13 c15 -7 46 -22 69 -33 24 -10 43 -23 44 -29 0 -10 69 -71 69 -62 0 2
-13 21 -30 42 -16 21 -30 45 -30 54 0 29 -53 97 -72 93z"/>
<path d="M3040 4149 c-52 -50 -88 -87 -80 -83 36 19 159 106 158 112 -1 4 4
18 11 30 7 13 11 25 9 27 -2 2 -46 -37 -98 -86z"/>
<path d="M4142 4189 c-15 -24 -8 -39 10 -21 13 13 20 42 10 42 -4 0 -13 -9
-20 -21z"/>
<path d="M1126 4159 l29 -31 -25 6 -25 7 25 -15 c14 -9 19 -15 11 -16 -8 0 -4
-8 10 -20 19 -15 21 -19 7 -20 -19 0 -18 -28 3 -41 12 -7 12 -9 -1 -9 -9 -1
-5 -6 10 -15 l25 -14 -25 -1 -25 -1 30 -24 c23 -19 26 -25 13 -25 -10 0 -32
-14 -50 -31 l-33 -31 33 26 c19 14 37 26 42 26 14 0 22 -20 8 -20 -7 0 0 -12
15 -25 33 -29 58 -23 31 6 -10 11 -18 29 -19 41 -1 11 -10 27 -20 34 -17 13
-17 14 -2 14 15 0 16 3 5 23 -6 12 -12 33 -13 47 0 14 -6 35 -12 46 -7 12 -10
24 -7 27 12 12 -27 67 -48 67 -21 0 -20 -2 8 -31z"/>
<path d="M2074 4171 c4 -6 29 -21 57 -32 27 -12 49 -24 49 -28 0 -3 11 -7 25
-7 33 -2 52 -19 74 -63 23 -49 44 -81 52 -81 19 0 14 30 -10 56 -27 29 -46 62
-42 77 1 4 -31 23 -71 42 -80 37 -145 55 -134 36z"/>
<path d="M3190 4163 c-19 -8 -47 -16 -62 -18 -37 -5 -79 -28 -103 -56 -11 -13
-13 -18 -5 -11 8 6 22 12 31 12 10 0 32 12 49 26 17 15 33 24 36 22 2 -3 -21
-25 -51 -48 -57 -44 -80 -72 -68 -84 4 -3 18 2 32 11 25 16 25 15 -4 -19 -16
-20 -34 -35 -40 -34 -9 2 -85 -85 -85 -98 0 -7 72 38 113 71 15 12 43 27 63
32 35 10 180 129 169 139 -3 3 -20 -8 -38 -25 -48 -46 -147 -91 -147 -67 0 15
22 44 30 39 18 -11 60 16 90 60 17 25 30 50 28 55 -2 4 -19 2 -38 -7z m-16
-52 c-24 -38 -51 -57 -62 -46 -4 4 77 85 86 85 1 0 -9 -18 -24 -39z"/>
<path d="M4131 4136 c-7 -8 -13 -24 -14 -35 -1 -12 -6 -21 -11 -21 -5 0 -6 -3
-3 -7 4 -3 1 -13 -6 -21 -10 -13 -9 -14 3 -7 9 5 8 0 -4 -13 -11 -12 -16 -22
-11 -22 4 0 3 -6 -1 -12 -11 -15 -11 -38 -1 -55 4 -7 -1 -14 -13 -18 -11 -3
-20 -10 -20 -15 0 -5 11 -4 25 2 23 10 31 30 25 67 -1 7 8 24 20 36 14 15 18
25 11 29 -7 5 -5 15 5 32 16 23 15 24 -1 17 -20 -7 -15 6 13 40 8 9 10 17 5
17 -6 0 -16 -6 -22 -14z"/>
<path d="M2092 4126 c10 -7 15 -15 13 -18 -3 -3 2 -11 12 -19 11 -9 14 -10 9
-1 -4 6 -3 12 2 12 6 0 12 -6 15 -14 4 -11 -3 -13 -31 -12 -20 1 -48 -1 -62
-4 -18 -5 -6 -8 41 -13 36 -3 84 -12 107 -20 l41 -14 -20 39 c-11 22 -23 37
-26 34 -3 -3 -27 6 -54 19 -53 27 -74 32 -47 11z"/>
<path d="M3665 4130 c-3 -6 1 -7 9 -4 18 7 21 14 7 14 -6 0 -13 -4 -16 -10z"/>
<path d="M2396 4065 c4 -16 13 -39 21 -50 14 -19 15 -19 8 5 -4 14 -14 36 -21
50 l-14 25 6 -30z"/>
<path d="M2005 4057 c9 -14 23 -28 31 -31 31 -12 13 -28 -28 -24 -24 2 -43 -2
-45 -8 -2 -7 25 -14 79 -19 46 -3 108 -15 138 -26 65 -22 49 -5 -35 38 -27 14
-68 38 -90 53 -66 44 -69 45 -50 17z"/>
<path d="M3243 4049 c-53 -31 -102 -81 -85 -87 5 -1 36 7 68 19 33 12 54 24
47 26 -7 3 -22 -1 -35 -7 -23 -11 -23 -11 -3 7 26 23 70 73 64 73 -2 0 -28
-14 -56 -31z"/>
<path d="M2811 4060 c-1 -8 -4 -26 -7 -40 -5 -19 -4 -22 5 -14 7 6 11 24 8 40
-2 16 -5 22 -6 14z"/>
<path d="M2711 4002 c-17 -31 -13 -40 5 -14 9 13 14 26 11 29 -3 2 -10 -4 -16
-15z"/>
<path d="M2767 4001 c-4 -17 -3 -21 5 -13 5 5 8 16 6 23 -3 8 -7 3 -11 -10z"/>
<path d="M3645 4010 c-3 -6 1 -7 9 -4 18 7 21 14 7 14 -6 0 -13 -4 -16 -10z"/>
<path d="M2662 3960 c-1 -19 -4 -53 -7 -75 l-5 -40 11 33 c5 19 8 53 6 75 -3
40 -4 40 -5 7z"/>
<path d="M3630 3980 c-8 -5 -10 -10 -5 -10 6 0 17 5 25 10 8 5 11 10 5 10 -5
0 -17 -5 -25 -10z"/>
<path d="M2845 3940 c-8 -16 -15 -32 -15 -37 0 -10 25 27 33 50 10 27 -1 20
-18 -13z"/>
<path d="M1988 3953 c7 -3 16 -2 19 1 4 3 -2 6 -13 5 -11 0 -14 -3 -6 -6z"/>
<path d="M2526 3935 c8 -37 14 -45 14 -19 0 10 -5 26 -10 34 -8 11 -9 7 -4
-15z"/>
<path d="M1640 3942 c0 -4 14 -13 30 -19 17 -6 30 -10 30 -7 0 2 -13 10 -30
19 -16 9 -30 12 -30 7z"/>
<path d="M2366 3880 c12 -12 27 -21 33 -19 7 3 -3 13 -21 23 l-33 19 21 -23z"/>
<path d="M2476 3858 c24 -43 45 -68 66 -79 14 -7 12 -1 -7 27 -14 20 -25 40
-25 44 0 4 -12 15 -26 25 l-26 17 18 -34z"/>
<path d="M2240 3855 c7 -8 9 -15 6 -15 -17 0 22 -27 48 -34 21 -5 27 -4 23 6
-2 7 -9 12 -14 11 -6 -1 -21 9 -33 22 -25 27 -51 35 -30 10z"/>
<path d="M4025 3850 c-10 -11 -15 -20 -11 -20 10 0 66 30 66 35 0 13 -39 2
-55 -15z"/>
<path d="M1219 3839 c23 -14 37 -17 44 -10 7 7 2 14 -17 21 -47 18 -64 11 -27
-11z"/>
<path d="M4011 3806 l-23 -24 23 -4 c21 -3 18 -7 -29 -42 -29 -21 -51 -41 -48
-44 3 -3 -2 -11 -12 -18 -16 -13 -16 -13 1 -14 10 0 32 7 50 17 27 13 29 17
14 22 -15 6 -13 11 17 40 20 19 33 38 30 43 -3 4 1 8 8 8 7 0 37 -24 68 -52
l55 -53 -57 60 c-32 33 -58 66 -58 73 0 19 -14 14 -39 -12z"/>
<path d="M2214 3805 c11 -8 25 -15 30 -15 6 0 2 7 -8 15 -11 8 -25 15 -30 15
-6 0 -2 -7 8 -15z"/>
<path d="M1220 3799 c0 -9 58 -39 76 -39 4 0 -3 11 -16 25 -24 25 -60 34 -60
14z"/>
<path d="M1958 3793 c6 -2 18 -2 25 0 6 3 1 5 -13 5 -14 0 -19 -2 -12 -5z"/>
<path d="M2080 3751 c8 -5 39 -14 68 -19 48 -9 52 -8 39 6 -9 8 -39 17 -69 19
-36 3 -48 1 -38 -6z"/>
<path d="M1250 3740 c36 -11 50 -11 50 0 0 6 -17 10 -37 9 -34 -1 -35 -2 -13
-9z"/>
<path d="M2398 3733 c-32 -8 -19 -19 18 -15 25 3 32 7 23 13 -8 5 -16 8 -19 8
-3 -1 -13 -3 -22 -6z"/>
<path d="M2974 3723 c-12 -2 -30 -13 -40 -25 -19 -20 -19 -20 24 1 23 12 42
24 42 26 0 3 -1 4 -2 4 -2 -1 -13 -4 -24 -6z"/>
<path d="M1255 3710 c-7 -12 80 -54 98 -47 7 2 0 10 -15 17 -15 7 -25 16 -23
20 3 4 -5 10 -18 14 -30 8 -35 8 -42 -4z"/>
<path d="M2212 3702 c2 -10 15 -18 32 -20 16 -2 41 -11 55 -19 17 -10 14 -5
-8 13 -44 37 -84 50 -79 26z"/>
<path d="M2133 3677 c4 -10 7 -21 7 -23 0 -2 6 -4 13 -4 8 0 22 -9 33 -21 24
-26 115 -74 108 -57 -2 7 -26 25 -52 40 -26 15 -62 40 -81 55 -27 22 -33 24
-28 10z"/>
<path d="M2507 3684 c-10 -10 3 -76 18 -94 7 -8 15 -24 18 -35 3 -13 5 -10 5
10 1 38 -31 129 -41 119z"/>
<path d="M3050 3683 c-8 -4 -19 -12 -25 -19 -5 -7 -23 -16 -40 -19 l-30 -6 30
15 c22 10 25 15 12 15 -32 2 -73 -30 -96 -73 -12 -22 -33 -59 -46 -80 l-24
-40 -6 30 c-11 47 -13 51 -14 19 -1 -41 -36 -95 -61 -95 -12 0 -20 7 -20 18
-1 15 -2 15 -12 -2 -10 -18 -12 -17 -23 10 l-12 29 -6 -27 c-9 -36 -23 -35
-46 2 -10 16 -20 27 -24 24 -3 -3 -3 4 0 17 4 14 2 20 -5 15 -13 -8 -28 75
-18 101 6 14 4 15 -5 6 -15 -15 -24 -102 -15 -139 6 -22 9 -25 17 -13 7 12 9
12 9 -2 0 -9 10 -24 21 -35 12 -10 25 -28 30 -39 6 -16 8 -16 8 -3 1 25 41 11
41 -16 0 -11 -17 -55 -37 -97 l-37 -76 -78 -6 c-118 -9 -159 15 -124 73 9 16
13 36 9 46 -6 16 -7 16 -20 -2 -7 -10 -13 -34 -14 -53 l0 -36 -21 41 c-12 24
-37 51 -63 67 -23 15 -62 44 -86 65 -24 21 -53 42 -64 46 -33 13 -214 25 -243
16 -22 -7 -16 -8 29 -9 31 -1 95 -8 143 -16 78 -14 90 -19 117 -50 17 -19 38
-35 48 -35 18 -1 71 -44 71 -58 0 -5 9 -12 21 -15 13 -4 18 -10 14 -17 -6 -9
-10 -9 -16 1 -7 11 -9 11 -9 1 0 -7 -4 -10 -10 -7 -10 6 -91 29 -165 47 -22 5
-47 16 -56 24 -9 8 -20 14 -25 12 -5 -1 -20 4 -33 11 -29 16 -94 9 -184 -19
-69 -22 -97 -25 -97 -10 0 12 36 31 75 41 l30 7 -28 1 c-15 1 -50 -11 -78 -26
-48 -25 -64 -27 -228 -34 -97 -4 -177 -8 -178 -8 -5 -2 -3 -88 3 -149 5 -46
11 -63 24 -67 10 -3 20 -19 23 -38 11 -70 73 -224 124 -309 30 -49 51 -93 48
-98 -3 -6 1 -10 10 -10 17 0 -16 -32 -60 -59 -18 -11 -16 -12 17 -9 32 3 35 2
27 -14 -5 -9 -18 -23 -30 -31 -25 -18 -9 -32 27 -23 17 5 24 13 24 31 0 13 5
27 11 31 6 3 8 17 5 30 -8 31 3 30 41 -3 103 -92 127 -108 219 -142 48 -18 78
-34 76 -42 -2 -9 1 -9 10 -2 7 6 53 14 102 17 97 8 181 34 224 71 26 22 28 22
29 4 1 -10 -2 -21 -7 -24 -5 -3 -6 -13 -3 -22 5 -12 2 -15 -10 -10 -20 8 -63
-25 -53 -42 4 -6 12 -9 17 -5 5 3 7 9 4 14 -3 4 2 13 10 20 10 9 15 9 15 1 0
-6 -6 -11 -12 -11 -9 0 -8 -4 2 -10 9 -6 11 -10 3 -10 -7 0 -10 -7 -7 -15 4
-8 -1 -27 -11 -41 -9 -14 -14 -28 -11 -32 10 -10 -26 -42 -48 -43 -20 -1 -18
-2 22 -15 10 -3 5 -14 -17 -39 -40 -46 -58 -83 -56 -120 1 -16 -3 -39 -8 -50
-9 -18 -7 -18 15 3 17 16 23 30 21 50 -3 19 7 43 33 82 20 30 54 102 76 160
37 98 57 139 152 311 36 67 87 217 101 298 10 58 31 77 97 84 58 7 155 -6 172
-23 6 -6 7 -10 3 -10 -4 0 2 -10 13 -22 11 -13 23 -34 26 -48 3 -14 13 -52 21
-85 19 -75 35 -146 36 -162 0 -7 3 -13 6 -13 11 0 33 -43 38 -73 3 -16 20 -59
38 -96 19 -36 48 -100 65 -141 17 -41 42 -103 56 -137 16 -37 33 -65 45 -68
10 -3 28 -18 39 -32 11 -14 22 -24 25 -21 3 2 -11 23 -31 46 -19 23 -32 42
-27 42 4 0 -1 7 -11 15 -12 9 -14 15 -7 15 8 0 2 13 -13 31 -30 36 -33 49 -9
49 14 0 13 3 -5 16 -12 8 -29 29 -38 46 -15 29 -15 31 2 24 18 -6 17 -5 0 9
-11 8 -23 15 -27 15 -4 0 -10 7 -13 15 -5 14 -4 14 16 0 29 -19 48 -20 22 0
-19 15 -19 15 1 9 11 -3 3 4 -17 16 -24 12 -46 37 -59 63 l-22 42 22 -19 c30
-27 26 -7 -6 26 -48 50 -10 29 52 -29 33 -31 50 -50 38 -44 -31 16 -29 -3 3
-28 14 -11 23 -25 19 -31 -3 -5 1 -10 9 -10 8 0 21 -7 29 -15 47 -46 185 -92
201 -66 8 12 6 13 -40 15 -39 3 -118 49 -91 54 11 2 29 -5 40 -16 12 -10 31
-22 42 -26 16 -5 15 -2 -5 14 -48 39 -64 50 -75 52 -5 1 42 4 105 7 108 6 156
-2 144 -21 -3 -4 -10 -8 -15 -8 -6 0 -7 6 -3 13 5 8 3 8 -9 -2 -9 -7 -14 -17
-12 -22 3 -4 -5 -6 -17 -3 -13 3 -30 5 -38 5 -43 -3 -54 -1 -71 15 -11 9 -19
13 -19 8 0 -15 36 -41 101 -75 50 -25 66 -29 85 -20 24 11 26 30 6 54 -16 19
4 29 30 16 13 -7 15 -5 11 12 -3 12 -20 27 -37 35 -41 18 -12 17 39 -1 48 -17
57 -13 15 7 l-30 15 26 11 c14 7 23 8 20 4 -3 -5 6 -25 20 -45 18 -28 32 -37
52 -37 l27 1 -22 18 -22 18 22 11 c20 10 19 10 -9 6 -25 -5 -32 -2 -41 19 -11
22 -9 27 13 42 13 9 30 13 37 9 7 -4 9 -3 4 1 -7 8 39 65 52 65 3 0 5 -17 5
-37 -2 -46 20 -93 43 -93 14 0 14 2 -2 20 -18 19 -17 20 6 20 l24 0 -25 13
c-14 7 -26 22 -28 34 -3 18 1 20 20 16 l23 -6 -24 26 -23 26 34 43 c71 88 99
152 123 273 7 39 21 91 30 118 15 41 21 47 46 47 36 0 41 17 37 130 l-3 85
-138 6 c-103 4 -141 10 -148 20 -6 10 -3 15 11 17 25 4 26 17 3 32 -15 9 -11
10 17 6 31 -4 32 -4 13 6 -31 15 -29 23 10 35 17 5 31 15 29 21 -1 7 3 12 9
12 5 0 7 5 4 10 -3 6 1 10 10 10 9 0 26 5 37 11 21 11 21 12 -3 25 -13 7 -31
13 -39 13 -8 0 -1 -6 15 -14 20 -9 24 -14 13 -14 -10 -1 -27 -10 -38 -21 -11
-11 -42 -25 -68 -30 -26 -5 -73 -20 -106 -34 l-59 -24 54 -10 c32 -6 43 -10
27 -11 -37 -1 -35 -13 5 -31 31 -14 31 -14 -52 -18 -65 -2 -87 0 -93 11 -11
20 -64 41 -85 32 -15 -5 -12 -9 17 -23 35 -16 35 -16 -100 -24 -74 -4 -144 -9
-155 -10 -11 -2 -19 2 -18 8 2 9 -7 9 -32 1 -19 -6 -35 -14 -35 -18 0 -17
-137 -89 -168 -89 -31 0 -42 13 -22 25 6 4 8 16 5 28 -2 12 -2 16 1 8 4 -9 13
0 25 25 11 22 16 30 13 19 -4 -11 -9 -38 -11 -60 l-3 -40 15 40 c15 39 33 58
47 49 4 -3 17 15 29 38 12 24 24 37 26 31 4 -10 10 -9 26 1 12 8 43 18 70 21
26 4 50 12 54 18 4 6 -7 8 -31 3 -106 -18 -113 -18 -92 -2 11 9 29 16 40 16
16 0 17 3 8 12 -19 19 -80 -19 -120 -74 -19 -27 -36 -48 -38 -48 -8 0 27 74
43 92 8 9 20 16 25 15 6 -1 12 6 13 15 5 30 -30 3 -61 -47 -16 -25 -36 -47
-45 -50 -9 -3 -21 -15 -27 -28 -8 -16 -11 -18 -11 -5 -1 11 -7 15 -21 11 -17
-5 -18 -2 -10 28 6 19 10 46 10 61 0 30 37 62 66 56 10 -2 31 10 48 26 35 32
120 73 181 87 40 8 40 8 -8 4 -26 -3 -46 -1 -43 4 6 10 48 27 89 35 15 4 27
11 27 16 0 6 -12 8 -27 4 -56 -12 -93 -26 -93 -34 0 -5 -21 -23 -47 -41 -27
-18 -59 -42 -73 -54 -14 -13 -42 -26 -62 -29 -21 -4 -42 -14 -47 -24 -5 -9
-12 -14 -16 -10 -9 8 17 57 52 99 21 25 23 31 10 26 -17 -6 -16 -4 2 19 11 15
18 30 15 35 -5 9 9 13 34 10 23 -4 79 19 97 39 18 20 13 24 -15 13z m-200
-264 c0 -9 -11 -40 -24 -69 -18 -38 -25 -47 -29 -33 -3 13 -5 12 -6 -7 -1 -23
-3 -23 -12 -6 -14 23 -3 95 17 118 20 21 54 19 54 -3z m-99 -60 c9 -31 11
-123 3 -143 -4 -12 -20 -16 -54 -16 l-48 0 15 48 c8 26 20 65 26 87 16 60 45
72 58 24z m-689 -32 c9 -1 14 -5 12 -9 -3 -4 -51 -8 -106 -8 -56 0 -98 3 -95
7 13 12 82 22 127 17 25 -3 53 -6 62 -7z m797 -45 c25 -46 -1 -82 -59 -82
l-41 0 23 43 c33 61 58 74 77 39z m-599 -31 c58 -19 119 -43 135 -55 28 -20
43 -21 288 -23 l258 -1 47 29 c126 78 252 94 656 85 159 -3 290 -7 291 -8 1
-2 5 -38 9 -80 l7 -78 -33 -16 c-36 -17 -54 -61 -79 -189 -25 -130 -62 -202
-152 -294 -151 -155 -316 -205 -499 -151 -130 39 -243 178 -288 356 -11 43
-20 90 -20 105 0 74 -60 116 -176 126 -68 6 -151 -15 -177 -45 -8 -9 -20 -48
-27 -87 -14 -83 -48 -181 -89 -263 -71 -141 -299 -252 -457 -223 -29 6 -77 20
-106 32 -51 22 -199 131 -244 181 -36 38 -132 221 -145 274 -6 27 -15 54 -20
59 -4 6 -11 34 -15 63 -4 35 -13 56 -25 62 -14 8 -18 25 -21 90 -2 47 1 82 7
84 6 3 181 4 390 3 l380 -2 105 -34z m383 -36 c-3 -9 -8 -14 -10 -11 -3 3 -2
9 2 15 9 16 15 13 8 -4z m492 -755 c3 -5 2 -10 -4 -10 -5 0 -13 5 -16 10 -3 6
-2 10 4 10 5 0 13 -4 16 -10z m285 -94 c0 -2 -7 -7 -16 -10 -8 -3 -12 -2 -9 4
6 10 25 14 25 6z m35 -26 l20 -9 -20 0 c-11 0 -27 4 -35 9 -13 9 -13 10 0 9 8
0 24 -4 35 -9z"/>
<path d="M1770 3231 c-131 -8 -189 -28 -232 -80 -36 -41 -43 -88 -29 -173 13
-82 55 -178 106 -245 55 -73 196 -188 257 -211 165 -61 316 -25 440 105 130
137 152 371 46 484 -34 37 -162 95 -234 108 -88 15 -224 20 -354 12z m-11 -85
c-63 -63 -125 -144 -121 -158 1 -3 -13 -2 -31 3 -64 18 -70 60 -19 133 38 55
100 86 175 86 l59 0 -63 -64z m225 39 c-9 -14 -23 -25 -32 -25 -9 0 -43 -10
-75 -22 -45 -17 -67 -33 -91 -65 -32 -43 -56 -61 -56 -41 0 6 33 42 73 81 39
39 73 74 73 79 1 4 2 10 3 13 0 3 28 5 61 5 l60 0 -16 -25z m-404 -28 c0 -2
-12 -14 -27 -28 l-28 -24 24 28 c23 25 31 32 31 24z m334 -53 c27 -10 18 -38
-28 -81 -32 -30 -50 -40 -65 -36 -12 3 -28 0 -36 -7 -10 -9 -19 -10 -25 -4
-16 16 45 103 83 119 36 16 49 18 71 9z m16 -104 c0 -12 -28 -25 -36 -17 -9 9
6 27 22 27 8 0 14 -5 14 -10z m120 -40 c13 -9 12 -12 -4 -25 -11 -8 -25 -15
-32 -15 -22 0 -28 23 -9 37 22 16 25 16 45 3z m-222 -17 c-4 -22 -22 -20 -26
1 -2 10 3 16 13 16 10 0 15 -7 13 -17z m-152 -180 c4 -32 3 -53 -3 -53 -12 0
-35 49 -28 60 3 4 -1 10 -9 13 -16 6 -15 24 5 92 l14 49 7 -54 c4 -30 10 -79
14 -107z m639 27 c7 -21 -9 -50 -27 -50 -5 0 -2 7 6 16 17 17 22 39 7 30 -12
-8 -41 3 -41 15 0 19 49 9 55 -11z m-571 -53 c4 -19 3 -26 -4 -22 -5 3 -10 18
-10 32 0 32 5 28 14 -10z m166 -117 c-12 -16 -26 -30 -33 -30 -6 0 2 14 18 30
16 17 30 30 33 30 2 0 -6 -13 -18 -30z"/>
<path d="M3231 3219 c-108 -18 -209 -86 -251 -169 -66 -130 -7 -367 116 -463
80 -63 123 -78 217 -78 93 0 135 12 225 60 188 102 310 404 222 548 -30 50
-126 91 -240 103 -113 11 -214 11 -289 -1z m250 -31 c0 -10 2 -10 6 0 7 17 23
15 23 -3 0 -8 -4 -15 -10 -15 -5 0 -10 -7 -10 -15 0 -8 -8 -15 -17 -15 -17 -1
-17 -1 0 -11 11 -6 17 -21 16 -42 l-1 -32 -9 31 c-5 16 -20 41 -34 54 -35 33
-33 60 5 60 17 0 30 -5 31 -12z m-201 -8 c0 -16 -34 -28 -55 -19 -19 7 -19 8
2 8 12 1 25 6 28 11 8 13 25 13 25 0z m96 -37 c-3 -8 -2 -11 3 -8 5 3 12 1 16
-5 4 -6 12 -7 18 -4 7 4 9 3 4 -1 -4 -5 0 -17 10 -27 15 -17 15 -18 -2 -18
-18 0 -76 31 -107 58 -13 11 -15 19 -8 33 9 16 12 16 41 2 19 -10 28 -20 25
-30z m244 13 c0 -8 -4 -18 -10 -21 -5 -3 -10 -4 -10 -1 0 2 -3 11 -6 20 -4 11
-1 16 10 16 9 0 16 -6 16 -14z m126 -71 c23 -56 12 -215 -15 -215 -19 0 -46
97 -46 168 -1 39 2 72 7 72 4 0 5 7 1 16 -13 34 38 -7 53 -41z m-129 -12 c-3
-10 -5 -2 -5 17 0 19 2 27 5 18 2 -10 2 -26 0 -35z m-447 23 c0 -2 -21 -20
-47 -40 -73 -57 -124 -45 -66 16 21 22 36 28 70 28 24 0 43 -2 43 -4z m30 -55
c0 -16 -80 -81 -100 -81 -33 0 -23 26 22 59 40 30 78 40 78 22z m280 -71 c12
-8 11 -10 -7 -10 -13 0 -23 5 -23 10 0 13 11 13 30 0z m-272 -32 c-2 -18 -11
-24 -35 -26 -18 -2 -33 -1 -33 3 0 18 28 45 48 45 19 0 23 -5 20 -22z m471 -9
c12 -35 15 -108 5 -133 -3 -9 -15 -16 -25 -16 -17 0 -19 8 -19 74 0 107 17
138 39 75z m-238 -56 c13 -15 12 -15 -8 -4 -24 12 -29 21 -14 21 5 0 15 -7 22
-17z m50 -176 c-10 -9 -11 -8 -5 6 3 10 9 15 12 12 3 -3 0 -11 -7 -18z"/>
<path d="M3112 3664 c-12 -8 -27 -12 -32 -9 -6 3 -10 1 -10 -4 0 -6 -9 -11
-20 -11 -11 0 -20 -4 -20 -10 0 -5 5 -10 10 -10 20 0 75 27 89 43 17 21 12 21
-17 1z"/>
<path d="M2055 3650 l-50 -7 53 -1 c29 -1 52 2 52 8 0 6 -1 9 -2 8 -2 0 -25
-4 -53 -8z"/>
<path d="M1290 3640 c0 -5 5 -10 10 -10 6 0 19 -9 30 -20 11 -11 32 -22 47
-26 27 -6 27 -6 -11 30 -37 34 -76 48 -76 26z"/>
<path d="M2310 3630 c14 -11 30 -20 35 -20 6 0 27 -9 48 -20 20 -11 37 -16 37
-12 0 15 -39 45 -62 47 -13 2 -36 8 -53 14 l-30 11 25 -20z"/>
<path d="M3920 3641 c0 -4 -14 -12 -31 -18 -17 -7 -28 -16 -25 -22 3 -5 3 -11
-1 -14 -5 -2 -2 -2 5 0 8 1 21 3 30 4 14 0 13 2 -2 8 -16 6 -11 10 27 19 26 7
47 14 47 16 0 2 -11 6 -25 8 -14 3 -25 2 -25 -1z"/>
<path d="M814 3618 l-19 -23 23 19 c21 18 27 26 19 26 -2 0 -12 -10 -23 -22z"/>
<path d="M2430 3636 c0 -2 7 -20 15 -40 14 -32 18 -35 36 -25 15 8 19 17 15
32 -3 12 -6 25 -6 30 0 7 -60 11 -60 3z"/>
<path d="M3310 3590 c34 -11 60 -11 35 0 -11 5 -29 8 -40 8 -16 0 -15 -2 5 -8z"/>
<path d="M779 3573 c-13 -16 -12 -17 4 -4 9 7 17 15 17 17 0 8 -8 3 -21 -13z"/>
<path d="M1964 3571 c4 -5 23 -13 42 -17 49 -9 30 -22 -36 -26 -49 -3 -52 -4
-26 -12 18 -6 47 -5 75 2 25 6 68 14 94 17 27 4 46 9 44 12 -3 3 -40 9 -82 14
-42 4 -86 11 -97 15 -13 4 -18 2 -14 -5z"/>
<path d="M1355 3561 c-3 -6 11 -13 30 -17 38 -7 51 -2 40 15 -8 14 -62 14 -70
2z"/>
<path d="M2646 3545 c-4 -14 0 -39 8 -57 l15 -33 -7 30 c-3 17 -6 42 -5 58 3
34 -3 35 -11 2z"/>
<path d="M3805 3552 c-27 -9 -61 -25 -75 -35 -34 -24 -12 -21 25 3 17 11 44
20 60 21 17 0 46 7 65 14 l35 13 -30 1 c-16 0 -52 -7 -80 -17z"/>
<path d="M2672 3530 c0 -19 2 -27 5 -17 2 9 2 25 0 35 -3 9 -5 1 -5 -18z"/>
<path d="M749 3533 c-13 -16 -12 -17 4 -4 9 7 17 15 17 17 0 8 -8 3 -21 -13z"/>
<path d="M2732 3510 c0 -19 2 -27 5 -17 2 9 2 25 0 35 -3 9 -5 1 -5 -18z"/>
<path d="M2250 3527 c0 -2 15 -16 33 -33 l32 -29 -29 33 c-28 30 -36 37 -36
29z"/>
<path d="M3295 3485 c39 -14 79 -24 90 -22 22 4 24 3 -61 30 -82 27 -106 19
-29 -8z"/>
<path d="M2391 3473 c-1 -21 -12 -28 -36 -23 -41 9 -55 9 -55 3 0 -9 48 -33
66 -33 21 0 72 -49 76 -72 4 -27 28 -36 28 -11 0 10 -9 32 -20 48 -11 17 -20
48 -21 70 -1 34 -2 36 -9 15 l-7 -25 -11 25 c-10 24 -11 24 -11 3z"/>
<path d="M2489 3409 c0 -30 -1 -32 -9 -11 -11 26 -23 30 -17 5 26 -96 41 -133
48 -121 6 8 9 -3 9 -29 0 -34 4 -43 18 -43 18 0 45 43 57 90 4 14 9 33 11 43
3 9 1 17 -4 17 -5 0 -15 -21 -23 -47 l-13 -47 -12 29 c-7 17 -13 26 -14 21 0
-5 -6 -3 -14 3 -11 9 -15 9 -18 0 -2 -6 -5 17 -6 52 -3 68 -12 94 -13 38z m58
-181 c-3 -8 -6 -5 -6 6 -1 11 2 17 5 13 3 -3 4 -12 1 -19z"/>
<path d="M3140 3434 c58 -8 150 -8 150 -1 0 4 -39 6 -87 6 -49 -1 -77 -3 -63
-5z"/>
<path d="M2248 3423 c7 -3 16 -2 19 1 4 3 -2 6 -13 5 -11 0 -14 -3 -6 -6z"/>
<path d="M4360 3410 c6 -11 13 -20 16 -20 2 0 0 9 -6 20 -6 11 -13 20 -16 20
-2 0 0 -9 6 -20z"/>
<path d="M3300 3416 c0 -4 60 -25 145 -51 11 -3 -7 8 -40 24 -52 27 -105 40
-105 27z"/>
<path d="M645 3370 c-9 -16 -13 -30 -11 -30 3 0 12 14 21 30 9 17 13 30 11 30
-3 0 -12 -13 -21 -30z"/>
<path d="M1728 3363 c7 -3 16 -2 19 1 4 3 -2 6 -13 5 -11 0 -14 -3 -6 -6z"/>
<path d="M2627 3318 c-18 -51 -29 -98 -23 -98 7 0 49 131 43 136 -2 2 -11 -15
-20 -38z"/>
<path d="M2219 3322 c12 -23 46 -45 61 -40 5 2 -10 16 -32 32 -35 25 -39 26
-29 8z"/>
<path d="M3275 3330 c-3 -5 -2 -10 4 -10 5 0 13 5 16 10 3 6 2 10 -4 10 -5 0
-13 -4 -16 -10z"/>
<path d="M610 3309 c-7 -11 -10 -23 -7 -25 2 -2 9 7 15 21 14 30 7 33 -8 4z"/>
<path d="M3543 3323 c9 -2 25 -2 35 0 9 3 1 5 -18 5 -19 0 -27 -2 -17 -5z"/>
<path d="M2998 3303 c-14 -17 -31 -63 -22 -63 2 0 13 18 24 40 22 43 22 50 -2
23z"/>
<path d="M556 3205 c-9 -26 -7 -32 5 -12 6 10 9 21 6 23 -2 3 -7 -2 -11 -11z"/>
<path d="M2767 2989 c7 -7 15 -10 18 -7 3 3 -2 9 -12 12 -14 6 -15 5 -6 -5z"/>
<path d="M2810 2895 c0 -5 5 -17 10 -25 5 -8 10 -10 10 -5 0 6 -5 17 -10 25
-5 8 -10 11 -10 5z"/>
<path d="M421 2804 c0 -11 3 -14 6 -6 3 7 2 16 -1 19 -3 4 -6 -2 -5 -13z"/>
<path d="M382 2580 c0 -14 2 -19 5 -12 2 6 2 18 0 25 -3 6 -5 1 -5 -13z"/>
<path d="M2860 2577 c0 -2 14 -16 32 -33 l31 -29 -22 33 c-18 26 -41 42 -41
29z"/>
<path d="M2686 2518 c-3 -13 -5 -36 -5 -53 1 -21 4 -15 10 20 8 52 6 72 -5 33z"/>
<path d="M373 2450 c0 -25 2 -35 4 -22 2 12 2 32 0 45 -2 12 -4 2 -4 -23z"/>
<path d="M1529 2454 l-22 -24 24 0 c22 -1 21 -3 -16 -35 -26 -22 -34 -35 -24
-35 24 0 69 39 69 60 0 10 5 22 10 25 14 9 12 22 -4 28 -8 3 -24 -5 -37 -19z"/>
<path d="M2701 2452 c-7 -18 -17 -29 -22 -26 -5 3 -6 -3 -2 -12 5 -13 3 -15
-7 -9 -10 6 -12 1 -6 -26 6 -30 5 -31 -7 -15 -8 11 -19 16 -25 12 -8 -5 -10
-2 -6 8 6 14 0 18 -23 15 -5 -1 -7 -5 -5 -10 1 -5 -3 -9 -9 -9 -6 0 -9 9 -6
20 3 11 1 23 -4 26 -5 3 -9 -3 -9 -14 0 -10 -3 -21 -6 -25 -8 -7 -35 3 -30 12
2 3 -7 7 -20 7 -13 1 -24 -2 -24 -8 0 -5 4 -7 9 -3 5 3 12 1 16 -5 3 -5 -1
-10 -9 -10 -8 0 -18 5 -22 11 -4 8 -9 7 -15 -2 -15 -25 -44 4 -44 45 0 45 -12
46 -31 1 -24 -59 -12 -175 18 -175 5 0 6 -4 3 -10 -3 -5 2 -10 12 -10 15 0 16
-2 3 -10 -12 -8 -9 -10 12 -10 46 0 81 -19 131 -71 52 -55 59 -74 25 -66 l-23
6 23 -19 c12 -10 22 -21 22 -25 0 -4 -7 -2 -15 5 -15 12 -16 12 -19 -12 -1 -7
-10 -11 -21 -10 -16 3 -17 1 -8 -9 9 -9 9 -17 0 -33 -6 -12 -11 -24 -12 -28 0
-8 -15 -23 -23 -23 -19 -2 -52 -17 -48 -23 2 -4 31 -7 65 -7 37 0 56 -4 51 -9
-17 -17 -113 -24 -178 -13 -50 8 -67 15 -81 36 -34 49 -101 184 -101 205 0 15
-3 17 -12 8 -6 -6 -12 -33 -12 -59 -1 -45 -3 -48 -30 -53 -33 -6 -48 -30 -19
-30 11 0 25 6 32 13 10 10 10 6 1 -17 -8 -23 -8 -31 2 -38 10 -7 9 -9 -2 -5
-8 2 -28 -7 -43 -20 -16 -13 -32 -21 -37 -18 -4 3 -20 -11 -35 -31 -21 -27
-23 -34 -9 -26 11 6 28 19 39 29 43 41 87 64 84 46 -3 -21 3 -33 17 -33 8 0
12 -4 9 -10 -3 -5 0 -10 7 -10 10 0 10 -2 -1 -9 -7 -5 -9 -10 -4 -12 16 -7 74
-99 68 -109 -3 -5 -13 -7 -23 -4 -13 5 -14 4 -3 -4 8 -6 9 -12 3 -16 -12 -7
-62 35 -62 52 0 7 -5 10 -11 7 -6 -4 -13 2 -16 14 -8 32 -20 25 -21 -14 -1
-31 2 -35 22 -35 22 0 23 -2 15 -37 -9 -41 -5 -57 6 -24 3 12 12 21 19 21 21
0 79 -67 73 -84 -9 -22 -37 -20 -37 2 -1 16 -1 16 -14 0 -18 -24 -35 -23 -29
2 3 11 9 18 13 15 4 -2 5 7 2 21 -3 19 -7 22 -13 12 -5 -7 -9 -20 -9 -29 0 -9
-7 -22 -15 -29 -12 -10 -15 -10 -15 0 0 10 -3 10 -15 0 -10 -8 -15 -9 -15 -1
0 7 -8 8 -25 1 -34 -13 -65 6 -65 40 0 20 2 22 10 10 12 -18 12 -2 0 25 -7 17
-9 17 -9 3 -1 -10 -6 -18 -11 -18 -6 0 -8 -11 -4 -27 7 -27 7 -28 -17 -11 -13
9 -23 22 -21 28 1 6 -2 9 -8 5 -5 -3 -10 0 -10 9 0 8 6 17 13 19 8 4 8 6 1 6
-8 1 -9 12 -3 38 4 21 6 39 4 41 -5 5 -25 -69 -25 -95 0 -17 -5 -21 -31 -19
-43 3 -79 48 -76 96 1 19 -2 35 -8 35 -5 0 -9 -17 -7 -37 3 -47 -9 -48 -37 -5
-17 26 -21 28 -21 12 0 -13 -11 -2 -31 33 -25 43 -34 51 -45 41 -11 -9 -14 -7
-14 9 0 11 4 32 10 47 7 17 7 24 0 20 -6 -3 -10 -13 -10 -21 0 -8 -4 -14 -9
-14 -6 0 -8 -17 -5 -37 l5 -38 -16 28 c-9 15 -20 27 -26 27 -6 0 -7 4 -4 10 3
5 0 7 -9 4 -8 -3 -17 2 -20 14 -8 23 -44 58 -52 49 -3 -3 -9 -20 -14 -39 -4
-18 -11 -41 -15 -51 -6 -13 -4 -16 10 -11 15 6 17 1 13 -37 -3 -24 -8 -53 -12
-64 -6 -16 -4 -15 13 5 24 30 26 22 6 -25 -14 -34 -13 -35 6 -24 19 9 18 7 -4
-28 -40 -65 -41 -69 -7 -38 l32 30 -17 -34 c-15 -30 -15 -33 -1 -28 9 4 16 5
16 3 0 -15 -35 -83 -46 -89 -24 -14 -17 -36 11 -31 35 6 32 -17 -6 -61 -34
-38 -27 -47 14 -15 16 13 28 35 32 61 9 50 2 58 -27 33 -15 -13 -11 -4 11 28
27 37 32 52 26 75 -4 15 -6 58 -6 95 1 37 -3 77 -8 90 -4 13 -6 40 -3 60 l4
37 24 -28 c13 -16 24 -38 24 -49 0 -13 9 -22 24 -26 22 -5 24 -9 15 -38 -5
-18 -8 -46 -8 -63 2 -27 2 -27 6 -5 2 14 9 38 16 55 11 29 11 29 17 6 5 -23 6
-23 23 -7 20 20 21 17 7 -19 -9 -24 -8 -26 10 -20 16 5 20 2 20 -19 0 -17 6
-26 16 -26 8 0 13 4 10 9 -8 12 18 21 33 11 10 -5 10 -9 2 -14 -16 -10 -2 -29
16 -22 10 4 13 0 11 -16 -4 -28 24 -32 57 -6 14 11 25 15 25 9 0 -5 -4 -13
-10 -16 -21 -13 -11 -35 14 -31 27 5 37 -10 31 -45 -4 -22 -4 -22 23 2 15 13
30 28 34 34 12 17 20 -3 9 -23 -19 -35 -12 -46 10 -18 27 34 64 36 55 2 -9
-35 3 -38 30 -8 29 34 32 12 3 -31 -17 -26 -14 -24 15 8 l36 40 0 -31 c0 -20
-9 -39 -25 -54 -14 -13 -25 -28 -25 -34 0 -6 30 20 68 57 37 37 72 67 77 67 6
-1 -5 -14 -24 -30 -22 -19 -32 -34 -28 -44 4 -9 2 -28 -4 -43 -10 -26 -9 -26
9 -10 10 9 22 14 25 10 7 -6 11 11 8 35 -1 7 9 12 24 12 15 0 35 5 46 10 23
13 26 -2 3 -24 -16 -16 -10 -41 7 -31 5 4 9 1 9 -4 0 -6 -4 -11 -9 -11 -4 0
-14 -21 -22 -47 -13 -47 -13 -47 -21 -18 -6 23 -3 34 14 52 12 13 17 23 12 23
-5 0 -16 -10 -24 -22 -17 -26 -34 -66 -24 -55 7 7 52 -115 54 -148 1 -13 4
-15 7 -6 3 7 -3 37 -13 67 -17 51 -17 54 0 73 10 11 15 25 10 32 -4 8 -3 10 4
5 7 -4 14 6 20 25 11 45 32 49 33 7 0 -25 2 -28 8 -14 6 14 11 7 24 -34 9 -29
17 -62 17 -74 -1 -21 -1 -21 -17 -1 -13 16 -15 17 -10 2 8 -22 -12 -69 -26
-60 -6 3 -7 1 -3 -6 10 -16 36 4 36 28 1 9 7 3 16 -14 8 -16 12 -22 10 -13 -3
9 0 18 5 20 6 2 13 23 16 47 4 32 3 42 -5 37 -8 -4 -12 0 -12 12 0 10 -7 33
-16 51 -12 25 -14 38 -6 54 9 19 11 16 13 -23 1 -25 4 -35 6 -22 5 27 14 28
31 2 7 -12 16 -19 21 -16 10 7 1 -94 -13 -153 -13 -50 -1 -97 44 -174 20 -34
21 -44 13 -102 -5 -36 -6 -70 -2 -77 4 -7 9 2 12 23 2 21 4 11 5 -28 2 -52 -2
-66 -23 -91 -33 -39 -32 -52 1 -21 l27 24 -5 -27 c-3 -15 -1 -25 3 -22 5 3 9
22 9 42 1 20 7 48 15 62 8 14 14 43 13 65 0 22 -2 33 -3 25 -2 -8 -7 -33 -11
-55 -7 -34 -9 -26 -14 55 -4 74 -10 102 -26 125 -11 17 -29 52 -38 79 -16 42
-17 53 -5 88 10 33 14 37 20 22 6 -15 8 -13 8 9 2 55 32 0 44 -80 2 -12 7 -26
11 -30 5 -5 6 5 2 20 -4 17 -2 35 4 42 8 10 4 23 -15 50 -28 42 -29 61 -11
120 l12 40 7 -73 c7 -74 47 -176 55 -140 2 9 -4 30 -12 47 -21 40 -20 48 4 26
34 -31 34 -9 1 65 -39 88 -39 105 -1 54 16 -21 30 -52 30 -67 0 -16 4 -26 10
-22 6 4 10 -13 10 -43 0 -36 -7 -59 -25 -85 -13 -20 -19 -36 -13 -34 15 3 31
-61 25 -99 -3 -18 -17 -50 -31 -73 -26 -41 -32 -80 -16 -116 7 -16 9 -12 10
20 2 38 3 39 9 10 7 -29 7 -30 19 -8 14 26 17 66 3 44 -6 -9 -10 -10 -16 -2
-3 6 4 32 16 58 13 28 22 63 21 91 0 30 3 41 9 31 7 -11 9 -9 9 6 0 12 -5 26
-11 32 -8 8 -9 31 -4 69 5 41 10 53 16 43 7 -10 8 -7 4 11 -2 14 -1 41 3 60
l8 34 13 -32 c7 -17 18 -32 23 -32 5 0 4 9 -2 19 -15 29 -12 39 7 16 15 -19
15 -19 10 10 -3 17 -8 39 -12 50 -5 16 -4 16 7 -3 8 -12 16 -21 19 -18 2 2 5
-5 6 -17 1 -12 5 -35 9 -51 4 -15 3 -31 -2 -35 -5 -3 -15 -19 -22 -35 -9 -21
-16 -26 -21 -17 -10 16 -44 -34 -42 -63 1 -12 1 -59 1 -106 -1 -91 7 -100 20
-23 l8 48 1 -55 c2 -59 18 -150 20 -113 0 12 6 23 12 25 7 2 5 24 -6 68 -19
72 -15 142 9 187 l15 28 -4 -35 c-4 -30 -3 -28 9 10 l13 45 11 -35 10 -35 1
50 c2 60 15 89 25 53 5 -19 8 -20 16 -8 9 13 11 13 20 0 20 -32 58 59 48 115
-3 13 -1 22 3 19 5 -3 9 5 9 18 0 13 5 30 11 38 7 11 8 6 4 -20 -4 -19 -8 -37
-8 -40 -3 -13 26 -80 39 -90 18 -16 18 -15 -5 48 -19 50 -19 52 -1 52 13 0 25
-18 43 -67 14 -38 28 -77 31 -88 3 -11 3 2 1 28 -3 27 -16 71 -30 98 -13 27
-20 49 -15 49 6 0 11 19 11 43 l2 42 6 -41 c4 -23 15 -54 25 -69 10 -15 24
-43 31 -63 10 -27 14 -31 14 -15 1 12 -4 34 -9 49 -18 47 -29 104 -18 98 6 -4
8 2 3 17 -15 53 -14 62 4 24 10 -22 14 -43 10 -46 -5 -3 5 -18 21 -34 l31 -30
-16 37 c-17 41 -21 123 -5 113 5 -3 12 -22 16 -42 7 -35 8 -36 16 -13 5 14 5
26 -1 29 -14 9 -24 58 -13 65 6 3 13 -2 16 -12 4 -10 21 -32 38 -48 18 -16 26
-21 19 -11 -9 12 -10 17 -2 17 8 0 9 5 1 19 -13 25 -13 34 0 26 6 -3 10 2 10
12 0 15 2 16 10 3 6 -10 6 -16 0 -18 -6 -2 -8 -8 -5 -13 4 -5 17 3 30 19 14
15 25 21 25 14 0 -7 5 -10 10 -7 6 3 10 2 10 -3 0 -6 6 -12 14 -15 18 -7 10
27 -10 44 -8 6 -14 16 -14 22 0 6 13 -4 30 -23 30 -36 39 -35 18 3 -10 19 -9
20 4 9 13 -10 16 -9 21 9 6 21 27 18 27 -4 0 -7 -4 -6 -10 3 -8 13 -10 13 -10
-1 0 -21 30 -33 44 -18 8 9 8 10 0 6 -7 -4 -14 3 -18 17 -3 13 -9 32 -12 43
-6 16 -5 17 7 2 17 -20 62 -33 56 -16 -3 7 -10 11 -16 10 -6 -2 -11 6 -11 17
0 11 5 20 10 20 6 0 10 -4 10 -10 0 -5 7 -10 16 -10 14 0 16 7 11 40 -4 32 -3
39 7 31 13 -11 26 -5 26 11 0 5 -4 6 -10 3 -5 -3 -10 1 -10 11 0 13 3 14 15 4
11 -9 14 -29 12 -75 -1 -35 -5 -61 -9 -58 -5 2 -8 -10 -8 -28 0 -28 -2 -30
-17 -18 -10 9 -14 9 -10 2 11 -17 -4 -178 -14 -161 -10 15 -11 9 -9 -59 1 -47
0 -51 -19 -46 -26 7 -26 6 -2 -50 11 -25 29 -51 40 -57 12 -6 21 -8 21 -5 0
14 -34 71 -49 82 -9 7 -11 12 -6 12 6 0 19 -6 29 -14 23 -17 36 -19 36 -5 0 6
-7 10 -15 10 -18 0 -18 1 -5 34 6 16 6 27 0 31 -6 4 -10 14 -9 23 0 12 3 11 9
-5 9 -22 30 -32 30 -14 0 5 -7 25 -15 44 -14 34 -14 36 6 42 16 5 18 10 8 21
-7 9 -8 14 -1 14 6 0 11 15 11 33 2 56 17 223 19 200 4 -52 21 -28 28 39 6 59
9 67 15 43 6 -29 7 -29 8 8 0 20 5 37 10 37 5 0 13 9 16 20 4 11 11 18 16 15
5 -4 9 1 9 9 0 8 -5 18 -11 22 -8 5 -6 10 5 16 9 5 16 15 16 22 0 8 7 19 16
27 10 8 14 22 10 41 -3 15 -1 30 4 33 6 3 10 16 10 28 0 18 2 19 11 7 8 -11 9
-8 4 13 -4 20 -2 27 5 22 8 -5 9 4 5 29 -6 29 -4 36 9 36 15 0 15 2 0 31 -13
26 -14 33 -2 40 10 7 11 12 1 28 -10 15 -10 21 0 24 7 3 4 6 -5 6 -28 1 -21
18 9 26 l28 7 -25 18 -25 19 25 -6 25 -6 -22 25 c-13 13 -23 29 -23 35 0 5 -8
17 -18 26 -18 16 -19 16 -17 -2 1 -11 8 -27 16 -37 8 -9 13 -19 12 -21 -10
-13 0 -43 15 -44 14 0 14 -2 -3 -8 -11 -5 -27 -6 -35 -4 -11 4 -12 2 -3 -4 9
-7 10 -18 3 -43 -5 -19 -6 -36 -2 -39 14 -10 43 -61 35 -61 -5 0 -14 9 -21 20
-7 12 -17 18 -23 14 -7 -4 -5 -12 5 -23 18 -20 21 -47 6 -56 -5 -3 -10 -24
-10 -46 0 -21 -4 -39 -10 -39 -5 0 -10 -9 -10 -19 0 -11 -7 -27 -16 -35 -8 -9
-14 -24 -12 -33 1 -10 -2 -18 -7 -18 -6 0 -9 22 -7 51 2 35 -1 53 -10 57 -10
3 -13 -18 -12 -97 1 -73 0 -89 -6 -56 -7 44 -7 44 -8 9 -2 -42 -28 -109 -42
-109 -5 0 -2 21 6 48 9 26 18 58 20 72 4 22 3 21 -9 -5 l-13 -30 -7 33 c-4 21
-12 32 -23 32 -16 0 -16 -2 -1 -17 12 -15 14 -30 7 -78 l-7 -60 -2 48 c0 26
-4 47 -9 47 -4 0 -6 -21 -5 -47 l1 -48 -7 40 c-7 36 -8 37 -10 10 0 -17 -7
-37 -13 -44 -8 -9 -9 -12 -1 -7 7 4 9 -1 6 -14 -3 -11 -9 -18 -13 -15 -5 3
-11 -1 -13 -7 -4 -9 -6 -8 -7 2 0 8 -12 -5 -25 -30 -13 -25 -24 -38 -25 -30 0
10 -5 7 -16 -8 -24 -34 -34 -26 -30 24 4 53 12 65 18 29 3 -14 1 -28 -3 -31
-5 -3 -9 -11 -9 -17 0 -7 7 -3 15 7 8 10 12 23 9 28 -3 5 -2 23 1 40 l7 32 14
-30 13 -29 -6 30 c-3 17 -12 44 -19 60 -12 28 -13 29 -12 5 1 -14 0 -34 -1
-45 -1 -17 -3 -18 -11 -5 -13 20 -12 33 1 24 7 -4 10 -2 8 5 -7 19 -24 15 -27
-6 -9 -61 -36 -163 -43 -163 -5 0 -6 8 -2 18 5 14 3 14 -11 -3 -17 -19 -17
-18 -12 24 3 30 1 40 -5 30 -5 -7 -9 -30 -9 -49 0 -35 -14 -60 -33 -60 -6 0
-5 5 0 13 11 13 25 63 16 53 -3 -3 -12 2 -19 12 -12 15 -13 13 -8 -15 6 -29 4
-31 -17 -27 -13 2 -18 2 -11 -2 17 -8 15 -34 -3 -34 -7 0 -19 8 -24 18 -9 15
-10 15 -11 -4 -1 -58 -37 -34 -51 34 -6 32 -16 65 -21 75 -12 23 -1 37 13 17
8 -11 9 -8 5 12 -5 22 -3 26 9 22 11 -5 14 -1 9 12 -5 17 -4 17 11 -1 17 -19
17 -19 11 15 -6 34 -6 34 9 13 9 -13 24 -23 33 -23 15 0 15 2 2 10 -8 5 -15
13 -16 17 -2 17 -16 69 -25 91 -8 20 -7 22 11 12 12 -6 17 -17 14 -28 -5 -13
-4 -14 4 -3 8 11 12 10 21 -5 10 -18 10 -18 11 -1 0 11 4 15 12 11 7 -4 8 -3
4 5 -4 6 -11 9 -16 6 -13 -8 -22 13 -15 36 5 15 10 18 15 9 5 -8 9 -8 13 4 4
11 1 16 -11 16 -13 0 -14 2 -3 9 10 7 8 12 -9 24 -22 15 -22 15 -1 19 l21 3
-22 43 c-14 27 -29 42 -41 42 -14 0 -17 -5 -12 -20 5 -16 2 -20 -17 -20 -20
-1 -21 -2 -6 -11 12 -7 15 -15 9 -27 -4 -9 -23 -63 -41 -119 -18 -57 -36 -103
-41 -103 -4 0 -10 -13 -14 -29 -10 -48 -114 -153 -190 -191 -63 -32 -73 -34
-169 -34 -164 -1 -228 34 -345 189 -42 55 -101 189 -101 229 0 44 18 38 44
-13 59 -115 116 -178 184 -202 18 -6 32 -14 32 -17 0 -4 18 -6 40 -6 42 2 48
-3 28 -26 -11 -12 -10 -12 3 -2 12 9 18 9 28 -1 7 -7 14 -8 19 -2 12 17 42 17
42 0 0 -8 5 -15 10 -15 6 0 10 -9 10 -20 0 -11 -4 -20 -9 -20 -5 0 -11 -9 -14
-20 -4 -15 -12 -19 -34 -17 -16 2 -35 7 -42 11 -9 6 -12 3 -9 -10 2 -14 12
-19 33 -18 17 1 33 -3 37 -10 4 -6 8 -6 8 -1 0 6 25 9 57 9 51 -2 108 8 120
20 3 3 2 10 -2 16 -5 8 -10 7 -18 -3 -8 -10 -29 -14 -62 -13 l-50 1 0 52 c1
62 19 90 34 52 5 -13 10 -18 10 -10 1 8 4 11 7 8 4 -3 15 -2 25 4 15 8 18 6
13 -8 -2 -10 1 -8 7 5 8 15 21 22 41 22 15 0 30 0 33 0 3 0 31 14 62 31 40 21
68 44 90 77 37 54 78 143 87 187 4 21 -2 14 -18 -21 -13 -28 -29 -55 -35 -58
-6 -4 -11 -15 -11 -25 0 -10 -12 -29 -27 -43 -16 -15 -38 -37 -50 -51 -14 -15
-40 -28 -70 -33 -53 -10 -113 -7 -113 5 0 5 19 6 43 4 53 -6 118 11 142 37 18
20 18 20 -51 14 -103 -9 -173 14 -188 64 l-8 23 24 -23 c14 -13 22 -27 20 -33
-3 -5 1 -5 8 2 9 8 19 9 32 2 13 -7 18 -6 19 3 0 7 4 4 9 -7 l9 -20 0 20 c0
12 -16 33 -39 50 -21 17 -41 36 -44 43 -6 15 8 8 37 -16 9 -8 20 -12 24 -8 4
3 -9 20 -28 36 -19 17 -26 27 -16 24 9 -3 17 -1 17 5 0 6 -8 11 -17 11 -14 0
-15 2 -4 9 10 7 11 9 1 13 -10 3 -6 17 14 50 32 55 37 60 96 81 57 21 119 80
122 116 2 42 -3 85 -13 101 -6 10 -9 3 -9 -25 0 -22 -6 -50 -13 -63 l-13 -23
-12 26 c-14 31 -15 38 -3 30 5 -3 13 -1 16 5 4 6 3 9 -2 8 -4 -1 -20 6 -35 16
-15 10 -32 15 -37 12 -5 -4 -12 -2 -16 4 -8 14 -42 13 -51 -2 -5 -7 -3 -8 6
-3 9 5 11 4 6 -3 -4 -7 -12 -12 -18 -12 -6 0 -17 -8 -25 -17 -10 -13 -10 -9 2
15 13 27 13 32 1 32 -13 0 -31 -27 -28 -42 2 -7 -49 -50 -54 -45 -2 1 6 29 17
62 21 64 21 98 0 47z m166 -67 c-2 -5 -9 -10 -14 -10 -6 0 -15 -3 -19 -7 -4
-5 -14 -8 -22 -8 -12 0 -12 4 3 18 21 19 57 24 52 7z m-276 -24 c0 -3 2 -14 5
-23 2 -10 5 -25 7 -34 2 -9 11 -22 20 -29 19 -14 25 -91 6 -80 -6 4 -8 14 -5
21 3 8 -9 40 -26 72 -38 66 -45 94 -23 86 8 -4 15 -9 16 -13z m149 -51 c-24
-34 -47 -42 -30 -10 8 16 36 39 48 40 2 0 -6 -13 -18 -30z m-139 -141 c19 -16
20 -18 4 -10 -34 17 -51 31 -39 31 7 0 22 -9 35 -21z m9 -173 c0 -3 -14 -12
-32 -20 -31 -16 -31 -16 -13 4 16 18 45 28 45 16z m-20 -61 c-21 -25 -32 -17
-13 9 10 13 20 20 21 15 2 -5 -2 -16 -8 -24z m46 -3 c-17 -16 -18 -16 -5 5 7
12 15 20 18 17 3 -2 -3 -12 -13 -22z m507 -55 c3 -8 -1 -14 -8 -14 -7 0 -11 6
-8 14 3 7 6 13 8 13 2 0 5 -6 8 -13z m-1566 -19 c-3 -8 -6 -5 -6 6 -1 11 2 17
5 13 3 -3 4 -12 1 -19z m919 -29 c26 -2 26 -2 5 -6 -28 -5 -104 21 -122 43 -7
9 9 4 38 -11 28 -14 64 -26 79 -26z m-766 -54 c0 -5 -5 -3 -10 5 -5 8 -10 20
-10 25 0 6 5 3 10 -5 5 -8 10 -19 10 -25z m1354 -113 c10 -19 15 -41 11 -50
-10 -27 -35 22 -40 80 -4 37 -2 46 3 28 5 -14 17 -40 26 -58z m-803 15 c-8 -8
-11 -4 -11 14 0 33 14 47 18 19 2 -12 -1 -27 -7 -33z m51 3 c3 -19 0 -30 -8
-30 -12 0 -24 31 -24 64 0 30 27 1 32 -34z m1148 19 c0 -5 -4 -9 -10 -9 -5 0
-10 7 -10 16 0 8 5 12 10 9 6 -3 10 -10 10 -16z m-420 -96 c0 -13 -25 -12 -37
2 -4 4 -2 5 4 1 9 -5 11 2 7 26 l-5 33 15 -25 c8 -14 15 -30 16 -37z m-42 22
c-3 -3 -9 2 -12 12 -6 14 -5 15 5 6 7 -7 10 -15 7 -18z m-703 6 c3 -5 1 -12
-5 -16 -5 -3 -10 1 -10 9 0 18 6 21 15 7z m-425 -15 c0 -2 -8 -10 -17 -17 -16
-13 -17 -12 -4 4 13 16 21 21 21 13z m120 -30 c0 -2 -7 -7 -16 -10 -8 -3 -12
-2 -9 4 6 10 25 14 25 6z m390 -90 c0 -3 -4 -8 -10 -11 -5 -3 -10 -1 -10 4 0
6 5 11 10 11 6 0 10 -2 10 -4z m182 -61 c3 -14 1 -28 -3 -31 -5 -3 -9 9 -9 25
0 38 6 40 12 6z m87 -35 c0 -10 -3 -8 -9 5 -12 27 -12 43 0 25 5 -8 9 -22 9
-30z m409 0 c11 -32 10 -33 -3 -16 -8 11 -15 29 -15 40 0 25 4 19 18 -24z
m-348 -20 c17 -42 6 -49 -14 -9 -19 37 -19 39 -7 39 5 0 14 -14 21 -30z m107
-6 c5 -13 8 -13 15 -2 6 9 7 5 3 -12 -4 -14 -12 -29 -18 -35 -7 -7 -8 -6 -3 2
4 7 -1 24 -10 38 -10 16 -12 25 -5 25 6 0 14 -7 18 -16z m90 -36 c-3 -8 -6 -5
-6 6 -1 11 2 17 5 13 3 -3 4 -12 1 -19z m-390 -45 c-4 -17 -4 -17 -12 0 -4 9
-4 25 0 35 8 16 8 16 12 0 3 -10 3 -26 0 -35z m170 0 c-3 -10 -5 -4 -5 12 0
17 2 24 5 18 2 -7 2 -21 0 -30z m180 -15 c-3 -8 -6 -5 -6 6 -1 11 2 17 5 13 3
-3 4 -12 1 -19z m-60 -50 c-3 -7 -5 -2 -5 12 0 14 2 19 5 13 2 -7 2 -19 0 -25z"/>
<path d="M2640 2419 c0 -5 5 -7 10 -4 6 3 10 8 10 11 0 2 -4 4 -10 4 -5 0 -10
-5 -10 -11z"/>
<path d="M1766 2405 c-11 -8 -15 -15 -9 -15 6 0 16 7 23 15 16 19 11 19 -14 0z"/>
<path d="M2157 2389 c-9 -5 -21 -7 -26 -4 -13 7 -91 -27 -91 -40 0 -5 -4 -4
-9 4 -6 9 -14 10 -27 3 -24 -12 -127 -14 -158 -3 -22 9 -56 -2 -44 -14 9 -10
171 -11 198 -1 l25 8 -25 -19 c-14 -11 -34 -23 -45 -27 -19 -7 -19 -8 -2 -17
13 -8 32 -5 70 10 76 29 127 57 119 66 -4 5 -1 5 6 1 19 -11 94 4 89 17 -2 7
-11 12 -20 12 -8 0 -19 4 -23 8 -9 9 -15 9 -37 -4z m-82 -49 c-3 -5 -12 -10
-18 -10 -7 0 -6 4 3 10 19 12 23 12 15 0z"/>
<path d="M3565 2381 c-9 -16 11 -37 45 -45 23 -7 24 -6 7 8 -10 8 -24 22 -31
32 -10 13 -15 14 -21 5z"/>
<path d="M1538 2359 c-20 -11 -62 -78 -54 -86 3 -3 1 -14 -5 -24 -11 -22 1
-25 32 -9 26 14 24 30 -3 30 -20 0 -17 5 21 44 40 41 45 65 9 45z"/>
<path d="M3170 2346 c0 -2 16 -13 36 -25 19 -12 33 -25 30 -30 -4 -5 12 -15
34 -23 42 -14 55 -35 17 -30 -12 2 -41 12 -65 22 -57 25 -46 11 15 -20 35 -18
69 -26 127 -28 56 -3 77 -1 72 7 -4 6 -17 11 -29 11 -12 0 -28 4 -35 9 -14 9
20 26 68 34 16 3 8 5 -20 7 -25 1 -56 4 -69 5 -23 2 -24 2 -6 -11 18 -13 17
-14 -8 -14 -14 0 -36 11 -49 23 -38 39 -118 82 -118 63z"/>
<path d="M2107 2313 c-4 -3 -7 -11 -7 -17 0 -6 5 -5 12 2 6 6 9 14 7 17 -3 3
-9 2 -12 -2z"/>
<path d="M3560 2296 c0 -2 9 -6 20 -9 11 -3 18 -1 14 4 -5 9 -34 13 -34 5z"/>
<path d="M1835 2270 c3 -5 8 -10 11 -10 2 0 4 5 4 10 0 6 -5 10 -11 10 -5 0
-7 -4 -4 -10z"/>
<path d="M1800 2266 c0 -2 7 -7 16 -10 8 -3 12 -2 9 4 -6 10 -25 14 -25 6z"/>
<path d="M2045 2260 c-16 -7 -17 -9 -3 -9 9 -1 20 4 23 9 7 11 7 11 -20 0z"/>
<path d="M1713 2253 c9 -2 23 -2 30 0 6 3 -1 5 -18 5 -16 0 -22 -2 -12 -5z"/>
<path d="M1848 2244 c-16 -8 -28 -17 -28 -19 0 -7 60 17 66 26 8 13 -7 10 -38
-7z"/>
<path d="M2000 2250 c0 -5 5 -10 11 -10 5 0 7 5 4 10 -3 6 -8 10 -11 10 -2 0
-4 -4 -4 -10z"/>
<path d="M3395 2250 c-7 -12 2 -12 30 0 19 8 19 9 -2 9 -12 1 -25 -3 -28 -9z"/>
<path d="M2148 2243 c7 -3 16 -2 19 1 4 3 -2 6 -13 5 -11 0 -14 -3 -6 -6z"/>
<path d="M1494 2209 c-28 -31 -28 -31 -5 -24 l24 7 -21 -36 c-27 -45 -27 -49
-3 -37 19 10 44 65 34 74 -2 3 0 15 7 26 16 31 -2 26 -36 -10z"/>
<path d="M1579 2188 c-7 -32 -7 -68 0 -64 12 8 20 55 10 62 -5 3 -9 4 -10 2z"/>
<path d="M3617 2150 c6 -22 23 -38 23 -21 0 17 -12 41 -20 41 -5 0 -6 -9 -3
-20z"/>
<path d="M1761 2134 c-19 -13 -30 -24 -25 -23 18 1 79 27 66 28 -7 1 -10 6 -7
11 8 13 5 12 -34 -16z"/>
<path d="M1510 2124 c-46 -56 -47 -58 -18 -51 26 7 26 6 17 -25 -11 -41 -11
-41 2 -32 9 5 10 -8 7 -45 -4 -44 -3 -51 13 -51 26 0 32 46 15 115 -8 33 -16
71 -18 84 -3 22 -4 23 -18 5z"/>
<path d="M1983 2123 c-23 -5 -46 -27 -49 -49 -2 -10 2 -11 14 -5 15 8 71 63
61 60 -2 -1 -14 -4 -26 -6z"/>
<path d="M3364 2118 c-4 -7 -3 -8 4 -4 7 4 12 3 12 -2 0 -6 7 -12 15 -16 22
-8 18 12 -4 24 -14 7 -22 7 -27 -2z"/>
<path d="M3330 2105 c14 -8 30 -14 35 -14 6 0 -1 6 -15 14 -14 8 -29 14 -35
14 -5 0 1 -6 15 -14z"/>
<path d="M1596 2054 c-8 -21 -8 -24 3 -24 12 0 22 28 12 35 -5 3 -12 -2 -15
-11z"/>
<path d="M3305 2040 c10 -11 20 -18 23 -15 7 6 -18 35 -31 35 -5 0 -2 -9 8
-20z"/>
<path d="M2040 2019 c-33 -36 -90 -127 -90 -144 0 -5 10 6 23 26 70 113 85
131 74 89 -8 -32 1 -23 18 17 20 48 12 52 -25 12z"/>
<path d="M3520 1996 c0 -2 7 -7 16 -10 8 -3 12 -2 9 4 -6 10 -25 14 -25 6z"/>
<path d="M4561 1984 c0 -11 3 -14 6 -6 3 7 2 16 -1 19 -3 4 -6 -2 -5 -13z"/>
<path d="M1571 1974 c0 -11 3 -14 6 -6 3 7 2 16 -1 19 -3 4 -6 -2 -5 -13z"/>
<path d="M3416 1951 c-8 -13 4 -42 15 -35 5 3 10 -23 11 -58 2 -59 2 -60 5
-14 5 61 -3 99 -19 90 -8 -5 -9 -2 -5 9 7 18 2 23 -7 8z"/>
<path d="M1632 1920 c0 -19 2 -27 5 -17 2 9 2 25 0 35 -3 9 -5 1 -5 -18z"/>
<path d="M2406 1922 c-3 -5 1 -9 9 -9 8 0 12 4 9 9 -3 4 -7 8 -9 8 -2 0 -6 -4
-9 -8z"/>
<path d="M2131 1834 c0 -11 3 -14 6 -6 3 7 2 16 -1 19 -3 4 -6 -2 -5 -13z"/>
<path d="M1950 1800 c-6 -11 -8 -20 -6 -20 3 0 10 9 16 20 6 11 8 20 6 20 -3
0 -10 -9 -16 -20z"/>
<path d="M4486 1755 c-9 -26 -7 -32 5 -12 6 10 9 21 6 23 -2 3 -7 -2 -11 -11z"/>
<path d="M2110 1750 c-10 -6 -12 -12 -5 -19 7 -7 14 -4 23 9 13 21 6 25 -18
10z"/>
<path d="M4452 1665 c-17 -37 -14 -45 4 -12 9 16 14 31 11 33 -2 2 -9 -7 -15
-21z"/>
<path d="M2510 1640 c0 -19 3 -21 12 -12 9 9 9 15 0 24 -9 9 -12 7 -12 -12z"/>
<path d="M4410 1580 c-6 -11 -8 -20 -6 -20 3 0 10 9 16 20 6 11 8 20 6 20 -3
0 -10 -9 -16 -20z"/>
<path d="M1699 1573 c-13 -16 -12 -17 4 -4 9 7 17 15 17 17 0 8 -8 3 -21 -13z"/>
<path d="M1828 1543 c-29 -34 -32 -46 -10 -34 11 6 22 20 25 31 6 25 4 25 -15
3z"/>
<path d="M645 1500 c9 -16 18 -30 21 -30 2 0 -2 14 -11 30 -9 17 -18 30 -21
30 -2 0 2 -13 11 -30z"/>
<path d="M1672 1500 c0 -14 2 -19 5 -12 2 6 2 18 0 25 -3 6 -5 1 -5 -13z"/>
<path d="M4357 1475 c-9 -19 -15 -35 -12 -35 7 0 37 61 33 66 -3 2 -12 -12
-21 -31z"/>
<path d="M2066 1481 c-4 -12 -7 -50 -6 -82 2 -80 2 -102 -3 -192 -5 -75 -7
-80 -46 -122 -38 -41 -47 -55 -37 -55 2 0 25 26 51 57 40 49 46 62 42 93 -2
19 2 55 8 80 14 53 6 262 -9 221z"/>
<path d="M3350 1485 c0 -3 7 -22 15 -42 21 -49 19 -56 -10 -37 -20 13 -25 13
-25 3 0 -19 20 -49 20 -31 0 7 5 10 11 6 8 -5 8 -9 -1 -14 -9 -6 -5 -18 15
-46 19 -28 25 -32 20 -15 -5 15 -3 21 3 17 15 -9 22 21 7 34 -12 10 -25 56
-26 93 0 9 -5 17 -10 17 -6 0 -7 5 -4 10 3 6 1 10 -4 10 -6 0 -11 -2 -11 -5z"/>
<path d="M3180 1466 c0 -2 9 -23 20 -47 11 -24 20 -36 20 -26 0 18 -27 77 -35
77 -3 0 -5 -2 -5 -4z"/>
<path d="M3272 1440 c14 -22 24 -19 15 5 -4 8 -11 15 -17 15 -6 0 -6 -7 2 -20z"/>
<path d="M1883 1438 c-5 -7 -10 -29 -11 -48 -3 -41 -26 -76 -73 -108 -44 -30
-50 -46 -10 -26 43 22 82 76 98 136 13 54 12 67 -4 46z"/>
<path d="M2022 1430 c0 -14 2 -19 5 -12 2 6 2 18 0 25 -3 6 -5 1 -5 -13z"/>
<path d="M3402 1430 c0 -14 2 -19 5 -12 2 6 2 18 0 25 -3 6 -5 1 -5 -13z"/>
<path d="M1785 1369 c-9 -17 -15 -33 -13 -35 3 -2 12 12 21 31 21 43 13 47 -8
4z"/>
<path d="M1569 1356 c-7 -20 -24 -40 -38 -46 l-26 -12 23 -9 c30 -11 28 -27
-9 -77 l-31 -42 27 10 c38 14 39 13 16 -19 -12 -16 -21 -33 -21 -37 0 -4 -10
-18 -22 -31 -21 -23 -15 -29 16 -17 23 9 66 107 66 151 0 21 5 56 11 78 20 78
21 85 11 85 -6 0 -16 -15 -23 -34z"/>
<path d="M3290 1381 c0 -5 14 -19 30 -31 17 -12 30 -17 30 -13 0 5 -13 19 -30
31 -16 13 -30 18 -30 13z"/>
<path d="M1950 1343 c0 -24 3 -33 9 -25 7 12 4 62 -5 62 -2 0 -4 -17 -4 -37z"/>
<path d="M3224 1315 c8 -21 23 -45 34 -54 11 -9 25 -32 30 -51 6 -20 11 -26
11 -15 0 11 -5 32 -13 47 -13 24 -12 27 8 33 20 7 20 7 1 12 -11 3 -34 19 -52
35 l-31 30 12 -37z"/>
<path d="M740 1336 c0 -2 8 -10 18 -17 15 -13 16 -12 3 4 -13 16 -21 21 -21
13z"/>
<path d="M3191 1292 c12 -36 15 -38 22 -18 3 8 -3 22 -14 32 -19 17 -19 16 -8
-14z"/>
<path d="M1681 1296 c-7 -8 -11 -34 -9 -58 l3 -43 10 58 c6 31 10 57 9 57 -1
0 -7 -6 -13 -14z"/>
<path d="M2185 1265 c-4 -25 -5 -48 -2 -51 3 -3 9 15 12 41 4 25 5 48 2 51 -3
3 -9 -15 -12 -41z"/>
<path d="M770 1296 c0 -2 8 -10 18 -17 15 -13 16 -12 3 4 -13 16 -21 21 -21
13z"/>
<path d="M2402 1280 c0 -14 2 -19 5 -12 2 6 2 18 0 25 -3 6 -5 1 -5 -13z"/>
<path d="M1970 1244 c-14 -25 -16 -33 -6 -25 14 12 16 9 16 -22 0 -20 5 -39
10 -42 13 -8 13 26 0 61 -8 19 -7 30 1 40 7 8 10 17 7 20 -3 3 -15 -12 -28
-32z"/>
<path d="M2964 1204 c3 -38 12 -86 20 -106 9 -21 13 -49 10 -70 -4 -25 0 -44
15 -69 14 -23 21 -28 21 -16 0 10 -5 28 -11 40 -7 12 -13 40 -14 63 -1 34 1
41 14 36 11 -4 8 6 -9 34 -24 39 -24 39 43 -20 37 -32 67 -57 67 -54 0 2 -22
28 -50 56 -27 29 -50 56 -50 62 0 5 -5 9 -11 8 -6 -2 -17 18 -24 45 -19 72
-27 69 -21 -9z"/>
<path d="M4218 1253 c-18 -21 -31 -43 -25 -43 2 0 13 14 25 30 25 33 24 41 0
13z"/>
<path d="M1906 1228 c-17 -24 -20 -94 -10 -185 11 -87 19 -60 14 44 -3 60 -1
110 6 130 14 39 11 41 -10 11z"/>
<path d="M2130 1242 c0 -7 5 -23 12 -35 6 -12 15 -35 19 -52 5 -23 7 -19 6 22
-1 28 -4 49 -6 47 -2 -2 -10 4 -17 14 -9 11 -13 13 -14 4z"/>
<path d="M2853 1150 c0 -47 2 -66 4 -42 2 23 2 61 0 85 -2 23 -4 4 -4 -43z"/>
<path d="M830 1216 c0 -2 8 -10 18 -17 15 -13 16 -12 3 4 -13 16 -21 21 -21
13z"/>
<path d="M3162 1189 c-16 -47 -9 -64 31 -66 30 -2 31 -1 13 12 -10 8 -22 31
-26 52 l-6 38 -12 -36z"/>
<path d="M3380 1204 c0 -31 46 -149 53 -137 8 12 -4 52 -32 113 -14 30 -21 38
-21 24z"/>
<path d="M3436 1211 c-7 -11 29 -128 50 -158 8 -13 22 -23 31 -23 15 0 15 1 0
18 -9 10 -23 34 -32 55 -15 36 -14 37 5 37 27 0 25 9 -10 48 -32 35 -36 37
-44 23z"/>
<path d="M3001 1194 c0 -11 3 -14 6 -6 3 7 2 16 -1 19 -3 4 -6 -2 -5 -13z"/>
<path d="M2285 1170 c4 -14 13 -30 21 -36 11 -9 6 -18 -26 -47 -22 -19 -40
-41 -40 -48 0 -13 39 17 77 61 19 21 22 22 23 7 0 -28 20 -9 20 19 0 20 -4 24
-19 19 -13 -4 -25 3 -40 22 l-22 28 6 -25z"/>
<path d="M2383 1117 c-1 -44 1 -55 7 -37 11 33 12 88 3 93 -5 3 -9 -23 -10
-56z"/>
<path d="M4134 1148 l-29 -33 33 29 c30 28 37 36 29 36 -2 0 -16 -15 -33 -32z"/>
<path d="M2906 1116 c3 -22 17 -54 31 -73 31 -41 34 -41 20 -4 -6 16 -15 29
-21 28 -5 -1 -15 18 -22 43 -14 45 -14 45 -8 6z"/>
<path d="M3291 1108 c0 -10 13 -38 31 -63 17 -24 29 -47 26 -51 -4 -3 -19 13
-34 35 -14 23 -28 41 -30 41 -10 0 21 -71 51 -114 19 -28 35 -56 35 -63 0 -6
5 -15 10 -18 7 -4 9 2 6 17 -3 12 -8 42 -10 66 -4 43 -10 55 -52 102 -12 14
-24 34 -27 45 -4 16 -5 16 -6 3z"/>
<path d="M1592 1083 c-6 -15 -14 -38 -17 -51 -4 -14 -21 -29 -43 -39 -59 -24
-121 -57 -118 -60 3 -4 77 11 112 22 18 6 18 6 -1 -6 -31 -20 -136 -112 -131
-116 7 -8 86 32 86 44 0 6 18 27 41 46 35 30 38 36 24 45 -16 8 -16 9 -1 15
10 4 15 3 11 -3 -12 -19 12 -10 31 13 18 19 44 69 44 82 0 14 -18 2 -28 -17
-6 -13 -11 -17 -11 -10 -1 7 4 22 10 34 6 11 9 22 6 24 -2 3 -9 -8 -15 -23z
m-11 -76 c-10 -9 -11 -8 -5 6 3 10 9 15 12 12 3 -3 0 -11 -7 -18z"/>
<path d="M2446 1098 c-2 -7 -8 -29 -15 -49 -7 -24 -8 -44 -2 -60 9 -23 10 -23
10 -2 1 12 4 29 7 38 5 13 8 14 15 3 7 -10 9 -9 9 5 0 9 -5 17 -11 17 -7 0 -8
11 -4 30 6 28 -2 44 -9 18z"/>
<path d="M2047 1022 c-12 -54 -17 -108 -15 -179 3 -95 2 -103 -21 -127 -28
-30 -38 -28 -21 6 11 22 11 22 -9 -2 -11 -14 -19 -29 -17 -35 2 -5 -7 -21 -20
-35 -17 -19 -25 -41 -27 -79 -3 -32 -1 -48 4 -40 5 8 9 26 9 40 0 14 11 43 25
63 14 21 23 42 20 47 -3 5 0 6 8 3 8 -3 28 10 47 32 29 33 32 42 26 81 -3 23
-9 63 -12 88 -4 28 0 71 11 118 10 41 16 80 14 86 -2 6 -12 -24 -22 -67z"/>
<path d="M4079 1083 c-13 -16 -12 -17 4 -4 16 13 21 21 13 21 -2 0 -10 -8 -17
-17z"/>
<path d="M2863 1058 c-5 -27 -7 -29 -14 -13 -6 19 -7 19 -14 2 -5 -12 7 -48
39 -110 43 -85 53 -86 29 -3 -3 11 -1 16 5 12 6 -3 9 2 7 11 -1 10 -8 17 -15
15 -6 -1 -9 2 -6 7 4 5 0 16 -8 24 -11 10 -13 26 -9 51 7 45 -5 48 -14 4z"/>
<path d="M2176 1058 c-3 -13 -5 -36 -5 -53 1 -21 4 -15 10 20 8 52 6 72 -5 33z"/>
<path d="M2786 1046 c-4 -22 -1 -46 9 -68 l15 -33 -5 30 c-3 17 -8 38 -11 48
-3 9 -1 17 5 17 13 0 15 27 2 34 -5 3 -12 -10 -15 -28z"/>
<path d="M1475 1054 c-41 -21 -53 -34 -32 -34 24 0 65 21 71 36 7 18 -2 17
-39 -2z"/>
<path d="M2115 1061 c-8 -14 -24 -103 -16 -96 6 7 30 105 25 105 -1 0 -5 -4
-9 -9z"/>
<path d="M3182 1020 c3 -52 48 -112 48 -64 0 8 -4 12 -10 9 -5 -3 -7 0 -4 8 3
8 -4 30 -16 48 l-20 34 2 -35z"/>
<path d="M3447 1028 c2 -13 8 -41 12 -63 8 -45 32 -95 55 -114 24 -20 9 39
-17 68 l-22 23 22 -6 c19 -6 21 -4 16 26 -3 18 -14 45 -25 60 -24 34 -49 38
-41 6z m54 -65 c13 -16 12 -17 -3 -4 -10 7 -18 15 -18 17 0 8 8 3 21 -13z"/>
<path d="M4019 1013 l-34 -38 38 34 c20 19 37 36 37 38 0 8 -8 0 -41 -34z"/>
<path d="M1772 1015 c0 -16 2 -22 5 -12 2 9 2 23 0 30 -3 6 -5 -1 -5 -18z"/>
<path d="M2315 988 c-5 -15 -23 -88 -34 -139 -4 -20 -18 -54 -30 -75 -30 -52
4 -11 40 48 19 31 28 62 32 111 4 63 2 82 -8 55z"/>
<path d="M2832 980 c0 -14 2 -19 5 -12 2 6 2 18 0 25 -3 6 -5 1 -5 -13z"/>
<path d="M2210 966 c0 -14 7 -31 15 -40 8 -8 15 -22 15 -30 0 -9 5 -16 11 -16
10 0 8 14 -14 78 -13 38 -27 42 -27 8z"/>
<path d="M1707 948 c-68 -114 -77 -133 -52 -103 15 17 37 51 50 78 24 49 25
64 2 25z"/>
<path d="M3160 960 c-8 -5 -12 -12 -9 -15 4 -3 12 1 19 10 14 17 11 19 -10 5z"/>
<path d="M1837 953 c-13 -21 -10 -176 2 -168 8 4 12 175 5 175 -2 0 -5 -3 -7
-7z"/>
<path d="M1980 930 c-7 -16 -19 -30 -28 -30 -8 0 -13 -3 -9 -6 9 -9 48 6 42
17 -4 5 -2 9 2 9 5 0 9 9 10 20 2 28 -2 25 -17 -10z"/>
<path d="M2392 910 c-1 -25 -5 -56 -8 -70 -5 -21 -4 -22 6 -7 6 9 9 41 7 70
l-3 52 -2 -45z"/>
<path d="M2457 913 c23 -56 33 -93 23 -93 -4 0 -10 -10 -13 -22 -6 -22 -6 -22
13 2 25 32 25 33 -5 97 -29 61 -42 72 -18 16z"/>
<path d="M2990 937 c0 -7 31 -87 78 -200 15 -38 38 -64 48 -55 2 3 -6 18 -19
34 -23 29 -53 109 -36 98 16 -10 9 9 -11 31 -11 12 -29 39 -40 61 -10 21 -19
36 -20 31z"/>
<path d="M2706 887 c-5 -26 -5 -60 -1 -75 4 -15 7 -49 7 -77 -1 -37 1 -45 8
-30 7 16 9 17 9 3 1 -9 6 -20 13 -24 7 -5 8 -3 3 7 -5 7 -14 65 -20 129 -11
107 -12 112 -19 67z"/>
<path d="M1767 879 c-10 -18 -16 -34 -14 -36 3 -2 14 12 25 32 12 19 18 35 14
35 -4 0 -15 -14 -25 -31z"/>
<path d="M2150 891 c0 -7 -4 -9 -10 -6 -12 8 -13 -25 -1 -44 6 -9 10 -3 14 20
2 19 3 36 1 38 -2 2 -4 -1 -4 -8z"/>
<path d="M2814 872 c3 -18 13 -40 21 -48 20 -20 19 -15 -6 37 -19 42 -20 42
-15 11z"/>
<path d="M3140 883 c0 -11 18 -40 41 -64 l41 -44 -23 40 c-12 22 -31 51 -41
64 -17 22 -18 22 -18 4z"/>
<path d="M1510 851 c-13 -23 -51 -58 -87 -82 -35 -23 -63 -43 -63 -44 0 -2 24
5 53 15 31 11 60 30 73 47 35 48 66 103 57 103 -4 0 -19 -18 -33 -39z"/>
<path d="M3879 873 c-13 -16 -12 -17 4 -4 16 13 21 21 13 21 -2 0 -10 -8 -17
-17z"/>
<path d="M1150 876 c0 -2 8 -10 18 -17 15 -13 16 -12 3 4 -13 16 -21 21 -21
13z"/>
<path d="M3120 868 c0 -17 28 -88 34 -88 5 0 -22 92 -29 98 -3 3 -5 -2 -5 -10z"/>
<path d="M2672 822 c-6 -21 -12 -70 -13 -110 -1 -40 -5 -75 -10 -78 -5 -3 -9
-17 -8 -32 l1 -27 9 25 c7 21 8 19 4 -10 -3 -19 -7 -48 -10 -65 l-6 -30 15 25
c11 18 15 55 16 140 0 63 5 132 11 153 14 51 6 59 -9 9z"/>
<path d="M3450 793 c31 -32 64 -75 75 -97 11 -21 25 -41 32 -43 13 -5 8 -23
-6 -23 -4 0 -19 9 -32 21 l-24 21 -6 -24 c-7 -29 10 -58 30 -50 10 4 11 7 3
10 -23 7 -12 22 12 16 15 -3 29 1 40 11 16 16 16 19 -1 39 -10 11 -27 29 -38
39 -11 10 -14 16 -7 12 10 -5 11 0 6 20 -5 22 -3 26 11 23 10 -2 20 3 22 10 3
6 0 12 -6 12 -6 0 -19 9 -30 21 -24 26 -34 11 -20 -30 17 -48 6 -46 -29 5 -18
25 -37 42 -42 39 -6 -3 -10 -2 -10 3 0 6 -8 13 -17 16 -10 4 7 -19 37 -51z"/>
<path d="M1210 826 c0 -2 8 -10 18 -17 15 -13 16 -12 3 4 -13 16 -21 21 -21
13z"/>
<path d="M3809 813 c-13 -16 -12 -17 4 -4 9 7 17 15 17 17 0 8 -8 3 -21 -13z"/>
<path d="M1737 814 c-10 -11 -9 -52 2 -59 13 -8 24 32 14 50 -5 9 -12 12 -16
9z"/>
<path d="M2156 813 c5 -5 12 -12 16 -18 4 -6 8 -2 8 8 0 9 -7 17 -17 17 -9 0
-12 -3 -7 -7z"/>
<path d="M3075 810 c-7 -11 18 -75 34 -84 16 -10 14 30 -4 64 -17 32 -21 35
-30 20z"/>
<path d="M3350 795 c15 -40 41 -75 56 -75 8 0 14 -6 14 -12 0 -9 3 -9 9 1 10
16 -4 67 -27 94 -8 9 -26 17 -38 17 -21 0 -22 -3 -14 -25z m38 -31 c-4 -3 -12
5 -18 18 -12 22 -12 22 6 6 10 -10 15 -20 12 -24z m26 -10 c3 -8 2 -12 -4 -9
-6 3 -10 10 -10 16 0 14 7 11 14 -7z"/>
<path d="M1579 783 l-24 -26 33 23 c33 25 38 30 24 30 -5 0 -19 -12 -33 -27z"/>
<path d="M1858 788 c-3 -16 -1 -28 3 -28 5 0 9 -7 9 -17 0 -9 2 -14 5 -11 3 3
2 23 -3 44 -8 37 -9 38 -14 12z"/>
<path d="M2740 800 c0 -5 5 -10 11 -10 5 0 7 5 4 10 -3 6 -8 10 -11 10 -2 0
-4 -4 -4 -10z"/>
<path d="M2985 760 c7 -46 31 -90 54 -98 7 -2 3 10 -9 30 -11 18 -20 42 -20
54 0 11 -7 29 -15 40 -15 18 -15 16 -10 -26z"/>
<path d="M2344 768 c-4 -13 -9 -25 -13 -28 -6 -5 -60 -153 -64 -175 -1 -5 -6
-13 -12 -17 -14 -10 6 -10 22 0 7 4 24 37 38 72 l25 65 -5 -55 c-3 -30 -7 -89
-9 -130 l-4 -75 10 75 c5 41 10 113 12 160 1 47 5 95 10 108 4 12 5 22 2 22
-2 0 -8 -10 -12 -22z"/>
<path d="M2802 744 c40 -44 61 -106 56 -164 -4 -41 -2 -53 16 -67 17 -15 18
-15 8 -1 -8 10 -12 38 -10 75 l3 58 11 -45 c11 -42 12 -43 13 -12 1 46 -40
121 -86 156 l-38 29 27 -29z"/>
<path d="M2909 733 c-3 -18 -4 -33 -2 -33 12 0 33 31 32 47 0 16 -1 16 -8 -2
l-8 -20 -5 20 c-3 15 -6 11 -9 -12z"/>
<path d="M1832 743 c-12 -5 -46 -62 -40 -68 2 -1 15 15 30 36 15 21 27 39 25
38 -1 0 -8 -3 -15 -6z"/>
<path d="M2461 720 c-30 -29 -31 -33 -31 -111 0 -44 -5 -90 -12 -102 -13 -25
-13 -86 1 -100 7 -7 8 2 5 25 -4 19 0 54 9 79 9 27 13 64 10 94 -4 41 -1 56
19 85 49 71 48 77 -1 30z"/>
<path d="M1427 720 c-36 -22 -46 -33 -23 -24 15 6 17 4 11 -7 -5 -8 5 -3 21
11 16 14 30 26 32 26 2 1 0 4 -5 7 -4 2 -20 -3 -36 -13z"/>
<path d="M2156 695 c-4 -27 -9 -59 -11 -70 -2 -12 -30 -47 -62 -80 -36 -37
-47 -52 -29 -41 28 18 29 18 21 0 -15 -39 -16 -58 0 -24 9 19 17 39 18 45 1 5
15 23 30 40 42 45 56 83 48 135 l-7 45 -8 -50z"/>
<path d="M1585 719 c-4 -6 -4 -13 -1 -16 3 -4 -1 -17 -9 -30 -9 -13 -11 -23
-6 -23 14 0 28 22 33 53 5 27 -5 37 -17 16z"/>
<path d="M3277 723 c-19 -18 10 -133 33 -133 4 0 19 -11 34 -25 39 -36 32 -14
-9 25 -19 18 -37 47 -40 64 -4 17 -9 40 -12 51 -5 18 -4 19 13 5 18 -14 18
-14 5 3 -15 19 -15 19 -24 10z"/>
<path d="M1883 662 c0 -49 -5 -70 -22 -95 l-22 -32 25 30 c71 82 97 115 88
115 -4 0 -19 -12 -33 -26 l-24 -26 -6 49 c-6 47 -6 46 -6 -15z"/>
<path d="M2601 681 c4 -14 10 -35 12 -46 3 -11 5 1 6 26 1 33 -3 46 -13 46
-10 0 -12 -7 -5 -26z"/>
<path d="M3359 672 c6 -12 16 -24 22 -28 8 -4 8 -1 0 14 -6 12 -16 24 -22 28
-8 4 -8 1 0 -14z"/>
<path d="M2977 640 c3 -19 12 -51 20 -70 l13 -35 -6 35 c-4 22 -3 31 3 25 15
-16 53 -112 53 -134 0 -11 4 -22 9 -25 30 -19 -39 164 -83 219 -15 19 -15 18
-9 -15z"/>
<path d="M2900 646 c0 -8 5 -18 10 -21 6 -3 10 1 10 9 0 8 -4 18 -10 21 -5 3
-10 -1 -10 -9z"/>
<path d="M3330 644 c0 -21 38 -79 46 -71 3 2 -7 24 -21 48 -18 32 -25 38 -25
23z"/>
<path d="M3261 595 c42 -58 71 -82 42 -35 -12 19 -22 37 -22 40 0 20 -16 40
-33 40 -17 0 -16 -5 13 -45z"/>
<path d="M1641 612 c-17 -31 -13 -40 5 -14 9 13 14 26 11 29 -3 2 -10 -4 -16
-15z"/>
<path d="M1749 590 c-15 -20 -30 -48 -33 -61 -6 -22 -6 -22 5 -4 6 11 23 37
37 58 33 49 25 56 -9 7z"/>
<path d="M2547 575 c-15 -31 -27 -61 -27 -68 0 -6 9 6 18 28 28 61 33 21 7
-58 -23 -71 -12 -90 13 -21 10 28 24 174 17 174 -1 0 -13 -25 -28 -55z"/>
<path d="M2722 535 c-1 -50 -6 -106 -12 -124 -12 -43 -5 -54 10 -16 6 16 9 73
7 129 l-3 101 -2 -90z"/>
<path d="M3185 580 c10 -11 20 -18 23 -15 3 3 13 -12 23 -32 9 -21 18 -32 18
-25 2 21 -29 73 -39 67 -6 -4 -10 -2 -10 3 0 6 -8 13 -17 16 -15 6 -15 4 2
-14z"/>
<path d="M2801 493 c10 -31 19 -59 19 -62 -1 -14 -30 34 -30 50 0 15 -39 72
-40 58 -1 -20 51 -117 65 -123 15 -5 16 -1 11 31 -10 57 -26 103 -36 103 -5 0
0 -25 11 -57z"/>
<path d="M3139 493 c10 -31 17 -41 19 -30 4 21 -16 77 -28 77 -4 0 0 -21 9
-47z"/>
<path d="M3175 510 c4 -19 12 -39 17 -45 7 -7 8 2 3 25 -4 19 -12 40 -17 45
-7 7 -8 -2 -3 -25z"/>
<path d="M2212 508 c-7 -7 -12 -20 -12 -30 0 -22 31 -100 37 -94 3 3 -3 25
-12 49 -13 35 -14 49 -6 66 13 24 11 27 -7 9z"/>
<path d="M3005 490 c-3 -5 -2 -10 3 -10 5 0 14 -12 21 -26 6 -15 14 -24 17
-21 3 3 2 12 -2 19 -9 13 -10 18 -13 38 0 6 -5 10 -10 10 -6 0 -13 -4 -16 -10z"/>
<path d="M2877 466 c14 -19 19 -21 21 -9 2 9 -2 19 -10 24 -24 16 -29 9 -11
-15z"/>
<path d="M2634 415 c4 -16 12 -34 17 -39 5 -6 5 4 -1 24 -12 42 -25 55 -16 15z"/>
<path d="M2971 414 c0 -11 3 -14 6 -6 3 7 2 16 -1 19 -3 4 -6 -2 -5 -13z"/>
<path d="M2671 374 c0 -11 3 -14 6 -6 3 7 2 16 -1 19 -3 4 -6 -2 -5 -13z"/>
</g>
</svg>
